# Blender 5.0.1
# www.blender.org
o column_low
v 0.000002 -0.001850 -0.547658
v -0.209577 -0.001850 -0.505970
v -0.387250 -0.001850 -0.387252
v -0.505967 -0.001850 -0.209579
v -0.547655 -0.001850 0.000000
v -0.505967 -0.001850 0.209579
v -0.387250 -0.001850 0.387252
v -0.209577 -0.001850 0.505970
v 0.000002 -0.001850 0.547658
v 0.209582 -0.001850 0.505970
v 0.387255 -0.001850 0.387252
v 0.505972 -0.001850 0.209579
v 0.547660 -0.001850 0.000000
v 0.505972 -0.001850 -0.209579
v 0.387255 -0.001850 -0.387252
v 0.209582 -0.001850 -0.505970
v 0.000002 0.066331 -0.581087
v -0.222370 0.066331 -0.536854
v -0.410888 0.066331 -0.410890
v -0.536852 0.066331 -0.222372
v -0.581084 0.066331 0.000000
v -0.536852 0.066331 0.222372
v -0.410888 0.066331 0.410890
v -0.222370 0.066331 0.536854
v 0.000002 0.066331 0.581087
v 0.222374 0.066331 0.536854
v 0.410892 0.066331 0.410890
v 0.536856 0.066331 0.222372
v 0.581089 0.066331 0.000000
v 0.536856 0.066331 -0.222372
v 0.410892 0.066331 -0.410890
v 0.222374 0.066331 -0.536854
v 0.000002 0.065403 -0.616401
v -0.235884 0.065403 -0.569480
v -0.435859 0.065403 -0.435861
v -0.569478 0.065403 -0.235886
v -0.616399 0.065403 0.000000
v -0.569478 0.065403 0.235886
v -0.435859 0.065403 0.435861
v -0.235884 0.065403 0.569480
v 0.000002 0.065403 0.616401
v 0.235889 0.065403 0.569480
v 0.435863 0.065403 0.435861
v 0.569482 0.065403 0.235886
v 0.616403 0.065403 0.000000
v 0.569482 0.065403 -0.235886
v 0.435863 0.065403 -0.435861
v 0.235889 0.065403 -0.569480
v 0.000002 0.543147 -0.616401
v -0.235884 0.543147 -0.569480
v -0.435859 0.543147 -0.435861
v -0.569478 0.543147 -0.235886
v -0.616399 0.543147 0.000000
v -0.569478 0.543147 0.235886
v -0.435859 0.543147 0.435861
v -0.235884 0.543147 0.569480
v 0.000002 0.543147 0.616401
v 0.235889 0.543147 0.569480
v 0.435863 0.543147 0.435861
v 0.569482 0.543147 0.235886
v 0.616403 0.543147 0.000000
v 0.569482 0.543147 -0.235886
v 0.435863 0.543147 -0.435861
v 0.235889 0.543147 -0.569480
v 0.000002 0.542219 -0.531640
v -0.203447 0.542219 -0.491171
v -0.375924 0.542219 -0.375926
v -0.491169 0.542219 -0.203449
v -0.531637 0.542219 0.000000
v -0.491169 0.542219 0.203449
v -0.375924 0.542219 0.375926
v -0.203447 0.542219 0.491171
v 0.000002 0.542219 0.531640
v 0.203452 0.542219 0.491171
v 0.375928 0.542219 0.375926
v 0.491173 0.542219 0.203449
v 0.531642 0.542219 0.000000
v 0.491173 0.542219 -0.203449
v 0.375928 0.542219 -0.375926
v 0.203452 0.542219 -0.491171
v 0.000002 0.801873 -0.537427
v -0.205662 0.801873 -0.496517
v -0.380016 0.801873 -0.380018
v -0.496515 0.801873 -0.205664
v -0.537424 0.801873 0.000000
v -0.496515 0.801873 0.205664
v -0.380016 0.801873 0.380018
v -0.205662 0.801873 0.496517
v 0.000002 0.801873 0.537427
v 0.205666 0.801873 0.496517
v 0.380020 0.801873 0.380018
v 0.496520 0.801873 0.205664
v 0.537429 0.801873 0.000000
v 0.496520 0.801873 -0.205664
v 0.380020 0.801873 -0.380018
v 0.205666 0.801873 -0.496517
v 0.000002 0.801873 -0.546906
v -0.209289 0.801873 -0.505275
v -0.386718 0.801873 -0.386721
v -0.505272 0.801873 -0.209292
v -0.546903 0.801873 0.000000
v -0.505272 0.801873 0.209292
v -0.386718 0.801873 0.386721
v -0.209289 0.801873 0.505275
v 0.000002 0.801873 0.546906
v 0.209294 0.801873 0.505275
v 0.386723 0.801873 0.386721
v 0.505277 0.801873 0.209292
v 0.546908 0.801873 0.000000
v 0.505277 0.801873 -0.209292
v 0.386723 0.801873 -0.386721
v 0.209294 0.801873 -0.505275
v 0.000002 0.847810 -0.542355
v -0.207548 0.847810 -0.501070
v -0.383500 0.847810 -0.383503
v -0.501068 0.847810 -0.207550
v -0.542353 0.847810 0.000000
v -0.501068 0.847810 0.207550
v -0.383500 0.847810 0.383503
v -0.207548 0.847810 0.501070
v 0.000002 0.847810 0.542355
v 0.207552 0.847810 0.501070
v 0.383505 0.847810 0.383503
v 0.501073 0.847810 0.207550
v 0.542357 0.847810 0.000000
v 0.501073 0.847810 -0.207550
v 0.383505 0.847810 -0.383503
v 0.207552 0.847810 -0.501070
v 0.000002 0.847810 -0.433837
v -0.166020 0.847810 -0.400813
v -0.306767 0.847810 -0.306769
v -0.400810 0.847810 -0.166022
v -0.433834 0.847810 0.000000
v -0.400810 0.847810 0.166022
v -0.306767 0.847810 0.306769
v -0.166020 0.847810 0.400813
v 0.000002 0.847810 0.433837
v 0.166024 0.847810 0.400813
v 0.306771 0.847810 0.306769
v 0.400815 0.847810 0.166022
v 0.433839 0.847810 0.000000
v 0.400815 0.847810 -0.166022
v 0.306771 0.847810 -0.306769
v 0.166024 0.847810 -0.400813
v 0.000002 5.424735 -0.532605
v -0.203817 5.424735 -0.492063
v -0.376606 5.424735 -0.376608
v -0.492061 5.424735 -0.203819
v -0.532603 5.424735 0.000000
v -0.492061 5.424735 0.203819
v -0.376606 5.424735 0.376608
v -0.203817 5.424735 0.492063
v 0.000002 5.424735 0.532605
v 0.203821 5.424735 0.492063
v 0.376611 5.424735 0.376608
v 0.492065 5.424735 0.203819
v 0.532607 5.424735 0.000000
v 0.492065 5.424735 -0.203819
v 0.376611 5.424735 -0.376608
v 0.203821 5.424735 -0.492063
v 0.000002 5.340974 -0.574939
v -0.220017 5.340974 -0.531174
v -0.406541 5.340974 -0.406543
v -0.531172 5.340974 -0.220020
v -0.574937 5.340974 0.000000
v -0.531172 5.340974 0.220020
v -0.406541 5.340974 0.406543
v -0.220017 5.340974 0.531174
v 0.000002 5.340974 0.574939
v 0.220022 5.340974 0.531174
v 0.406546 5.340974 0.406543
v 0.531177 5.340974 0.220020
v 0.574942 5.340974 0.000000
v 0.531177 5.340974 -0.220020
v 0.406546 5.340974 -0.406543
v 0.220022 5.340974 -0.531174
v 0.000002 5.340974 -0.595421
v -0.227855 5.340974 -0.550097
v -0.421024 5.340974 -0.421026
v -0.550095 5.340974 -0.227858
v -0.595419 5.340974 0.000000
v -0.550095 5.340974 0.227858
v -0.421024 5.340974 0.421026
v -0.227855 5.340974 0.550097
v 0.000002 5.340974 0.595421
v 0.227860 5.340974 0.550097
v 0.421028 5.340974 0.421026
v 0.550099 5.340974 0.227858
v 0.595423 5.340974 0.000000
v 0.550099 5.340974 -0.227858
v 0.421028 5.340974 -0.421026
v 0.227860 5.340974 -0.550097
v 0.000002 5.193028 -0.607441
v -0.232455 5.193028 -0.561202
v -0.429523 5.193028 -0.429525
v -0.561200 5.193028 -0.232457
v -0.607438 5.193028 0.000000
v -0.561200 5.193028 0.232457
v -0.429523 5.193028 0.429525
v -0.232455 5.193028 0.561202
v 0.000002 5.193028 0.607441
v 0.232460 5.193028 0.561202
v 0.429528 5.193028 0.429525
v 0.561204 5.193028 0.232457
v 0.607443 5.193028 0.000000
v 0.561204 5.193028 -0.232457
v 0.429528 5.193028 -0.429525
v 0.232460 5.193028 -0.561202
v 0.000002 5.193028 -0.574426
v -0.219821 5.193028 -0.530701
v -0.406179 5.193028 -0.406181
v -0.530698 5.193028 -0.219824
v -0.574424 5.193028 0.000000
v -0.530698 5.193028 0.219824
v -0.406179 5.193028 0.406181
v -0.219821 5.193028 0.530701
v 0.000002 5.193028 0.574426
v 0.219826 5.193028 0.530701
v 0.406183 5.193028 0.406181
v 0.530703 5.193028 0.219824
v 0.574429 5.193028 0.000000
v 0.530703 5.193028 -0.219824
v 0.406183 5.193028 -0.406181
v 0.219826 5.193028 -0.530701
v 0.000002 5.059165 -0.528917
v -0.202405 5.059165 -0.488656
v -0.373999 5.059165 -0.374001
v -0.488653 5.059165 -0.202408
v -0.528915 5.059165 0.000000
v -0.488653 5.059165 0.202408
v -0.373999 5.059165 0.374001
v -0.202405 5.059165 0.488656
v 0.000002 5.059165 0.528917
v 0.202410 5.059165 0.488656
v 0.374003 5.059165 0.374001
v 0.488658 5.059165 0.202408
v 0.528919 5.059165 0.000000
v 0.488658 5.059165 -0.202408
v 0.374003 5.059165 -0.374001
v 0.202410 5.059165 -0.488656
v 0.000002 5.059165 -0.539876
v -0.206599 5.059165 -0.498781
v -0.381748 5.059165 -0.381750
v -0.498778 5.059165 -0.206602
v -0.539874 5.059165 0.000000
v -0.498778 5.059165 0.206602
v -0.381748 5.059165 0.381750
v -0.206599 5.059165 0.498781
v 0.000002 5.059165 0.539876
v 0.206604 5.059165 0.498781
v 0.381753 5.059165 0.381750
v 0.498783 5.059165 0.206602
v 0.539879 5.059165 0.000000
v 0.498783 5.059165 -0.206602
v 0.381753 5.059165 -0.381750
v 0.206604 5.059165 -0.498781
v 0.000002 5.014846 -0.527133
v -0.201723 5.014846 -0.487008
v -0.372737 5.014846 -0.372740
v -0.487005 5.014846 -0.201725
v -0.527131 5.014846 0.000000
v -0.487005 5.014846 0.201725
v -0.372737 5.014846 0.372740
v -0.201723 5.014846 0.487008
v 0.000002 5.014846 0.527133
v 0.201728 5.014846 0.487008
v 0.372742 5.014846 0.372740
v 0.487010 5.014846 0.201725
v 0.527135 5.014846 0.000000
v 0.487010 5.014846 -0.201725
v 0.372742 5.014846 -0.372740
v 0.201728 5.014846 -0.487008
v 0.000002 5.014846 -0.437924
v -0.167584 5.014846 -0.404589
v -0.309657 5.014846 -0.309659
v -0.404587 5.014846 -0.167586
v -0.437922 5.014846 0.000000
v -0.404587 5.014846 0.167586
v -0.309657 5.014846 0.309659
v -0.167584 5.014846 0.404589
v 0.000002 5.014846 0.437924
v 0.167589 5.014846 0.404589
v 0.309661 5.014846 0.309659
v 0.404591 5.014846 0.167586
v 0.437926 5.014846 0.000000
v 0.404591 5.014846 -0.167586
v 0.309661 5.014846 -0.309659
v 0.167589 5.014846 -0.404589
v -0.287133 5.424735 0.273829
v -0.314367 5.424735 0.000000
v -0.287133 5.424735 -0.273829
v 0.000002 5.424735 0.296390
v 0.000002 5.424734 0.000000
v 0.000002 5.424734 -0.296390
v 0.287138 5.424735 0.273829
v 0.314371 5.424734 0.000000
v 0.287138 5.424734 -0.273829
v -0.287133 -0.001850 -0.273829
v -0.314367 -0.001850 0.000000
v -0.287133 -0.001850 0.273829
v 0.000002 -0.001850 -0.296390
v 0.000002 -0.001850 0.000000
v 0.000002 -0.001850 0.296390
v 0.287138 -0.001850 -0.273829
v 0.314371 -0.001850 0.000000
v 0.287138 -0.001850 0.273829
v -0.407015 0.866377 0.168592
v -0.440550 0.866377 0.000000
v -0.407015 0.866377 -0.168592
v -0.311515 0.866377 -0.311517
v -0.168590 0.866377 -0.407017
v 0.000002 0.866377 -0.440552
v 0.168594 0.866377 -0.407017
v 0.311520 0.866377 -0.311517
v 0.407019 0.866377 -0.168592
v 0.440555 0.866377 0.000000
v 0.407019 0.866377 0.168592
v 0.311520 0.866377 0.311517
v -0.311515 0.866377 0.311517
v 0.168594 0.866377 0.407017
v 0.000002 0.866377 0.440552
v -0.168590 0.866377 0.407017
v -0.408267 4.996519 0.169111
v -0.441905 4.996519 0.000000
v -0.408267 4.996519 -0.169111
v -0.312473 4.996519 -0.312476
v -0.169108 4.996519 -0.408269
v 0.000002 4.996519 -0.441907
v 0.169113 4.996519 -0.408269
v 0.312478 4.996519 -0.312476
v 0.408271 4.996519 -0.169111
v 0.441910 4.996519 0.000000
v 0.408271 4.996519 0.169111
v 0.312478 4.996519 0.312476
v -0.312473 4.996519 0.312476
v -0.169108 4.996519 0.408269
v 0.169113 4.996519 0.408269
v 0.000002 4.996519 0.441907
v 0.168594 4.142373 -0.407017
v 0.168594 4.198608 -0.407017
v 0.157451 4.170490 -0.380114
v 0.168594 3.316345 -0.407017
v 0.168594 3.372580 -0.407017
v 0.158020 3.344462 -0.381489
v 0.168594 2.490316 -0.407017
v 0.168594 2.546552 -0.407017
v 0.160556 2.518434 -0.387611
v 0.168594 1.664288 -0.407017
v 0.168594 1.720523 -0.407017
v 0.160050 1.692406 -0.386389
v 0.440555 1.720523 0.000000
v 0.440555 1.664288 0.000000
v 0.418226 1.692405 0.000000
v 0.440555 2.546551 0.000000
v 0.440555 2.490316 0.000000
v 0.419550 2.518434 0.000000
v 0.440555 3.316344 0.000000
v 0.440555 3.372580 0.000000
v 0.412923 3.344462 0.000000
v 0.440555 4.198608 0.000000
v 0.440555 4.142373 0.000000
v 0.411435 4.170490 0.000000
v 0.168594 1.664288 0.407017
v 0.168594 1.720523 0.407017
v 0.160050 1.692405 0.386389
v 0.168594 2.546551 0.407017
v 0.168594 2.490316 0.407017
v 0.160556 2.518434 0.387611
v 0.168594 3.372580 0.407017
v 0.168594 3.316344 0.407017
v 0.158020 3.344462 0.381489
v 0.168594 4.198608 0.407017
v 0.168594 4.142373 0.407017
v 0.157451 4.170490 0.380114
v -0.311515 4.142373 0.311517
v -0.311515 4.198608 0.311517
v -0.290925 4.170490 0.290927
v -0.311515 3.372580 0.311517
v -0.311515 3.316345 0.311517
v -0.291976 3.344462 0.291979
v -0.311515 2.490316 0.311517
v -0.311515 2.546552 0.311517
v -0.296662 2.518434 0.296665
v -0.311515 1.720523 0.311517
v -0.311515 1.664288 0.311517
v -0.295727 1.692406 0.295729
v -0.311515 1.664288 -0.311517
v -0.311515 1.720523 -0.311517
v -0.295727 1.692405 -0.295729
v -0.311515 2.490316 -0.311517
v -0.311515 2.546551 -0.311517
v -0.296662 2.518434 -0.296665
v -0.311515 3.316344 -0.311517
v -0.311515 3.372580 -0.311517
v -0.291976 3.344462 -0.291979
v -0.311515 4.142373 -0.311517
v -0.311515 4.198608 -0.311517
v -0.290925 4.170490 -0.290927
v 0.000002 4.198608 -0.440552
v 0.000002 4.142373 -0.440552
v 0.000002 4.170490 -0.411433
v 0.000002 3.316345 -0.440552
v 0.000002 3.372580 -0.440552
v 0.000002 3.344462 -0.412920
v 0.000002 2.490316 -0.440552
v 0.000002 2.546552 -0.440552
v 0.000002 2.518434 -0.419548
v 0.000002 1.664288 -0.440552
v 0.000002 1.720523 -0.440552
v 0.000002 1.692406 -0.418224
v 0.311520 1.664288 -0.311517
v 0.311520 1.720523 -0.311517
v 0.295731 1.692405 -0.295729
v 0.311520 2.546551 -0.311517
v 0.311520 2.490316 -0.311517
v 0.296667 2.518434 -0.296665
v 0.311520 3.372580 -0.311517
v 0.311520 3.316344 -0.311517
v 0.291981 3.344462 -0.291979
v 0.311520 4.198608 -0.311517
v 0.311520 4.142373 -0.311517
v 0.290929 4.170490 -0.290927
v 0.407019 1.720523 -0.168592
v 0.407019 1.664288 -0.168592
v 0.386391 1.692405 -0.160047
v 0.407019 2.490316 -0.168592
v 0.407019 2.546551 -0.168592
v 0.387613 2.518434 -0.160554
v 0.407019 3.372580 -0.168592
v 0.407019 3.316344 -0.168592
v 0.381491 3.344462 -0.158018
v 0.407019 4.142373 -0.168592
v 0.407019 4.198608 -0.168592
v 0.380117 4.170490 -0.157449
v 0.407019 1.664288 0.168592
v 0.407019 1.720523 0.168592
v 0.386391 1.692405 0.160047
v 0.407019 2.490316 0.168592
v 0.407019 2.546551 0.168592
v 0.387613 2.518434 0.160554
v 0.407019 3.316344 0.168592
v 0.407019 3.372580 0.168592
v 0.381491 3.344462 0.158018
v 0.407019 4.198608 0.168592
v 0.407019 4.142373 0.168592
v 0.380117 4.170490 0.157449
v 0.311520 4.142373 0.311517
v 0.311520 4.198608 0.311517
v 0.290929 4.170490 0.290927
v 0.311520 3.316345 0.311517
v 0.311520 3.372580 0.311517
v 0.291981 3.344462 0.291979
v 0.311520 2.490316 0.311517
v 0.311520 2.546552 0.311517
v 0.296667 2.518434 0.296665
v 0.311520 1.720523 0.311517
v 0.311520 1.664288 0.311517
v 0.295731 1.692406 0.295729
v 0.000002 4.142373 0.440552
v 0.000002 4.198608 0.440552
v 0.000002 4.170490 0.411433
v 0.000002 3.372580 0.440552
v 0.000002 3.316345 0.440552
v 0.000002 3.344462 0.412920
v 0.000002 2.490316 0.440552
v 0.000002 2.546552 0.440552
v 0.000002 2.518434 0.419548
v 0.000002 1.664288 0.440552
v 0.000002 1.720523 0.440552
v 0.000002 1.692406 0.418224
v -0.168590 4.198608 0.407017
v -0.168590 4.142373 0.407017
v -0.157446 4.170490 0.380114
v -0.168590 3.316345 0.407017
v -0.168590 3.372580 0.407017
v -0.158015 3.344462 0.381489
v -0.168590 2.546552 0.407017
v -0.168590 2.490316 0.407017
v -0.160552 2.518434 0.387611
v -0.168590 1.664288 0.407017
v -0.168590 1.720523 0.407017
v -0.160045 1.692406 0.386389
v -0.407015 4.198608 0.168592
v -0.407015 4.142373 0.168592
v -0.380112 4.170490 0.157449
v -0.407015 3.316345 0.168592
v -0.407015 3.372580 0.168592
v -0.381486 3.344462 0.158018
v -0.407015 2.546552 0.168592
v -0.407015 2.490316 0.168592
v -0.387609 2.518434 0.160554
v -0.407015 1.720523 0.168592
v -0.407015 1.664288 0.168592
v -0.386386 1.692406 0.160047
v -0.440550 4.142373 0.000000
v -0.440550 4.198608 0.000000
v -0.411430 4.170490 0.000000
v -0.440550 3.372580 0.000000
v -0.440550 3.316345 0.000000
v -0.412918 3.344462 0.000000
v -0.440550 2.546552 0.000000
v -0.440550 2.490316 0.000000
v -0.419545 2.518434 0.000000
v -0.440550 1.720523 0.000000
v -0.440550 1.664288 0.000000
v -0.418222 1.692406 0.000000
v -0.168590 1.720523 -0.407017
v -0.168590 1.664288 -0.407017
v -0.160045 1.692405 -0.386389
v -0.168590 2.546551 -0.407017
v -0.168590 2.490316 -0.407017
v -0.160552 2.518434 -0.387611
v -0.168590 3.316344 -0.407017
v -0.168590 3.372580 -0.407017
v -0.158015 3.344462 -0.381489
v -0.168590 4.198608 -0.407017
v -0.168590 4.142373 -0.407017
v -0.157446 4.170490 -0.380114
v -0.407015 4.198608 -0.168592
v -0.407015 4.142373 -0.168592
v -0.380112 4.170490 -0.157449
v -0.407015 3.372580 -0.168592
v -0.407015 3.316345 -0.168592
v -0.381486 3.344462 -0.158018
v -0.407015 2.490316 -0.168592
v -0.407015 2.546552 -0.168592
v -0.387609 2.518434 -0.160554
v -0.407015 1.664288 -0.168592
v -0.407015 1.720523 -0.168592
v -0.386386 1.692406 -0.160047
v 0.000002 5.126096 0.514552
v 0.196913 5.126096 0.475384
v -0.196908 5.126096 -0.475384
v -0.363841 5.126096 -0.363843
v 0.363845 5.126096 0.363843
v -0.475382 5.126096 -0.196910
v 0.475386 5.126096 0.196910
v -0.514549 5.126096 0.000000
v 0.514554 5.126096 0.000000
v -0.475382 5.126096 0.196910
v 0.475386 5.126096 -0.196910
v -0.363841 5.126096 0.363843
v 0.363845 5.126096 -0.363843
v -0.196908 5.126096 0.475384
v 0.196913 5.126096 -0.475384
v 0.000002 5.126096 -0.514552
v 0.567217 5.267001 -0.234948
v 0.434129 5.267001 -0.434127
v -0.434125 5.267001 0.434127
v -0.234946 5.267001 0.567214
v 0.234950 5.267001 -0.567214
v 0.000002 5.267001 0.613949
v 0.000002 5.267001 -0.613949
v -0.234946 5.267001 -0.567214
v 0.234950 5.267001 0.567214
v -0.434125 5.267001 -0.434127
v 0.434129 5.267001 0.434127
v -0.567212 5.267001 -0.234948
v 0.567217 5.267001 0.234948
v -0.613946 5.267001 0.000000
v 0.613951 5.267001 0.000000
v -0.567212 5.267001 0.234948
v 0.209582 5.379847 0.505970
v 0.387255 5.379847 0.387252
v -0.387250 5.379847 -0.387252
v -0.505967 5.379847 -0.209579
v 0.505972 5.379847 0.209579
v -0.547655 5.379847 0.000000
v 0.547660 5.379847 0.000000
v -0.505967 5.379847 0.209579
v 0.505972 5.379847 -0.209579
v -0.387250 5.379847 0.387252
v 0.387255 5.379847 -0.387252
v -0.209577 5.379847 0.505970
v 0.209582 5.379847 -0.505970
v 0.000002 5.379847 0.547658
v 0.000002 5.379847 -0.547658
v -0.209577 5.379847 -0.505970
v -0.503969 5.037005 -0.208752
v -0.545492 5.037005 0.000000
v 0.503974 5.037005 0.208752
v 0.545497 5.037005 0.000000
v -0.503969 5.037005 0.208752
v 0.503974 5.037005 -0.208752
v -0.385721 5.037005 0.385723
v 0.385725 5.037005 -0.385723
v -0.208749 5.037005 0.503971
v 0.208754 5.037005 -0.503971
v 0.000002 5.037005 0.545495
v 0.000002 5.037005 -0.545495
v -0.208749 5.037005 -0.503971
v 0.208754 5.037005 0.503971
v -0.385721 5.037005 -0.385723
v 0.385725 5.037005 0.385723
v -0.511002 0.824841 -0.211665
v -0.553105 0.824841 0.000000
v 0.511007 0.824841 0.211665
v 0.553110 0.824841 0.000000
v -0.511002 0.824841 0.211665
v 0.511007 0.824841 -0.211665
v -0.391104 0.824841 0.391106
v 0.391108 0.824841 -0.391106
v -0.211663 0.824841 0.511004
v 0.211667 0.824841 -0.511004
v 0.000002 0.824841 0.553107
v 0.000002 0.824841 -0.553107
v -0.211663 0.824841 -0.511004
v 0.211667 0.824841 0.511004
v -0.391104 0.824841 -0.391106
v 0.391108 0.824841 0.391106
v 0.000002 0.668448 0.512846
v 0.196260 0.668448 0.473807
v -0.196255 0.668448 -0.473807
v -0.362634 0.668448 -0.362637
v 0.362639 0.668448 0.362637
v -0.473805 0.668448 -0.196257
v 0.473810 0.668448 0.196257
v -0.512843 0.668448 0.000000
v 0.512848 0.668448 0.000000
v -0.473805 0.668448 0.196257
v 0.473810 0.668448 -0.196257
v -0.362634 0.668448 0.362637
v 0.362639 0.668448 -0.362637
v -0.196255 0.668448 0.473807
v 0.196260 0.668448 -0.473807
v 0.000002 0.668448 -0.512846
v 0.577761 0.304275 -0.239315
v 0.442199 0.304275 -0.442197
v -0.442195 0.304275 0.442197
v -0.239313 0.304275 0.577758
v 0.239318 0.304275 -0.577758
v 0.000002 0.304275 0.625361
v 0.000002 0.304275 -0.625361
v -0.239313 0.304275 -0.577758
v 0.239318 0.304275 0.577758
v -0.442195 0.304275 -0.442197
v 0.442199 0.304275 0.442197
v -0.577756 0.304275 -0.239315
v 0.577761 0.304275 0.239315
v -0.625359 0.304275 0.000000
v 0.625363 0.304275 0.000000
v -0.577756 0.304275 0.239315
vn 0.6349 -0.4402 0.6349
vn 0.3436 -0.4402 0.8295
vn -0.8295 -0.4402 -0.3436
vn -0.6349 -0.4402 -0.6349
vn 0.8295 -0.4402 0.3436
vn -0.8979 -0.4402 -0.0000
vn 0.8979 -0.4402 -0.0000
vn -0.8295 -0.4402 0.3436
vn 0.8295 -0.4402 -0.3436
vn -0.6349 -0.4402 0.6349
vn 0.6349 -0.4402 -0.6349
vn -0.3436 -0.4402 0.8295
vn 0.3436 -0.4402 -0.8295
vn -0.0000 -0.4402 0.8979
vn -0.3436 -0.4402 -0.8295
vn -0.0000 -0.4402 -0.8979
vn -0.0000 -0.9997 0.0263
vn -0.0100 -0.9997 0.0243
vn -0.0100 -0.9997 -0.0243
vn -0.0000 -0.9997 -0.0263
vn 0.0186 -0.9997 0.0186
vn 0.0100 -0.9997 0.0243
vn -0.0186 -0.9997 -0.0186
vn 0.0243 -0.9997 0.0100
vn -0.0243 -0.9997 -0.0100
vn 0.0263 -0.9997 -0.0000
vn -0.0263 -0.9997 -0.0000
vn 0.0243 -0.9997 -0.0100
vn -0.0243 -0.9997 0.0100
vn 0.0186 -0.9997 -0.0186
vn -0.0186 -0.9997 0.0186
vn 0.0100 -0.9997 -0.0243
vn 0.7071 -0.0000 -0.7071
vn 0.7066 0.0375 -0.7066
vn 0.9232 0.0375 -0.3824
vn 0.9239 -0.0000 -0.3827
vn -0.3827 -0.0000 0.9239
vn -0.3824 0.0375 0.9232
vn -0.7066 0.0375 0.7066
vn -0.7071 -0.0000 0.7071
vn 0.3827 -0.0000 -0.9239
vn 0.3824 0.0375 -0.9232
vn -0.0000 -0.0000 1.0000
vn -0.0000 0.0375 0.9993
vn -0.3827 -0.0000 -0.9239
vn -0.3824 0.0375 -0.9232
vn -0.0000 0.0375 -0.9993
vn -0.0000 -0.0000 -1.0000
vn 0.3827 -0.0000 0.9239
vn 0.3824 0.0375 0.9232
vn -0.7071 -0.0000 -0.7071
vn -0.7066 0.0375 -0.7066
vn 0.7071 -0.0000 0.7071
vn 0.7066 0.0375 0.7066
vn -0.9239 -0.0000 -0.3827
vn -0.9232 0.0375 -0.3824
vn 0.9239 -0.0000 0.3827
vn 0.9232 0.0375 0.3824
vn -1.0000 -0.0000 -0.0000
vn -0.9993 0.0375 -0.0000
vn 1.0000 -0.0000 -0.0000
vn 0.9993 0.0375 -0.0000
vn -0.9239 -0.0000 0.3827
vn -0.9232 0.0375 0.3824
vn 0.0109 0.9999 -0.0000
vn 0.0101 0.9999 0.0042
vn -0.0109 0.9999 -0.0000
vn -0.0101 0.9999 -0.0042
vn 0.0101 0.9999 -0.0042
vn -0.0101 0.9999 0.0042
vn 0.0077 0.9999 -0.0077
vn -0.0077 0.9999 0.0077
vn 0.0042 0.9999 -0.0101
vn -0.0042 0.9999 0.0101
vn -0.0000 0.9999 -0.0109
vn 0.0042 0.9999 0.0101
vn -0.0000 0.9999 0.0109
vn -0.0042 0.9999 -0.0101
vn 0.0077 0.9999 0.0077
vn -0.0077 0.9999 -0.0077
vn 0.3826 -0.0176 0.9237
vn 0.3763 -0.1812 0.9086
vn -0.0000 -0.1812 0.9834
vn -0.0000 -0.0176 0.9998
vn -0.7070 -0.0176 -0.7070
vn -0.6954 -0.1812 -0.6954
vn -0.3764 -0.1812 -0.9086
vn -0.3826 -0.0176 -0.9237
vn 0.7070 -0.0176 0.7070
vn 0.6954 -0.1812 0.6954
vn -0.9237 -0.0176 -0.3826
vn -0.9086 -0.1812 -0.3763
vn 0.9237 -0.0176 0.3826
vn 0.9086 -0.1812 0.3763
vn -0.9998 -0.0176 -0.0000
vn -0.9834 -0.1812 -0.0000
vn 0.9998 -0.0176 -0.0000
vn 0.9834 -0.1812 -0.0000
vn -0.9237 -0.0176 0.3826
vn -0.9086 -0.1812 0.3763
vn 0.9237 -0.0176 -0.3826
vn 0.9086 -0.1812 -0.3763
vn -0.7070 -0.0176 0.7070
vn -0.6954 -0.1812 0.6954
vn 0.7070 -0.0176 -0.7070
vn 0.6954 -0.1812 -0.6954
vn -0.3826 -0.0176 0.9237
vn -0.3763 -0.1812 0.9086
vn 0.3826 -0.0176 -0.9237
vn 0.3763 -0.1812 -0.9086
vn -0.0000 -0.1812 -0.9834
vn -0.0000 -0.0176 -0.9998
vn -0.0000 -1.0000 -0.0000
vn -0.9057 0.4240 -0.0000
vn -0.8367 0.4240 -0.3466
vn 0.9057 0.4240 -0.0000
vn 0.8367 0.4240 0.3466
vn -0.8367 0.4240 0.3466
vn 0.8367 0.4240 -0.3466
vn -0.6404 0.4240 0.6404
vn 0.6404 0.4240 -0.6404
vn -0.3466 0.4240 0.8367
vn 0.3466 0.4240 -0.8367
vn -0.0000 0.4240 0.9057
vn -0.3466 0.4240 -0.8367
vn -0.0000 0.4240 -0.9057
vn 0.3466 0.4240 0.8367
vn -0.6404 0.4240 -0.6404
vn 0.6404 0.4240 0.6404
vn -0.0000 1.0000 -0.0000
vn -0.3772 -0.1691 -0.9106
vn -0.0000 -0.1691 -0.9856
vn -0.0000 -0.3401 -0.9404
vn -0.3599 -0.3401 -0.8688
vn -0.3806 0.1046 0.9188
vn -0.0000 0.1046 0.9945
vn -0.0000 0.2124 0.9772
vn -0.3740 0.2124 0.9028
vn 0.9188 0.1046 0.3806
vn 0.9239 -0.0017 0.3827
vn 1.0000 -0.0017 -0.0000
vn 0.9945 0.1046 -0.0000
vn 0.6285 0.4582 0.6285
vn 0.3401 0.4582 0.8212
vn 0.3132 0.5745 0.7562
vn 0.5788 0.5745 0.5788
vn -0.8212 0.4582 -0.3401
vn -0.6285 0.4582 -0.6285
vn -0.5788 0.5745 -0.5788
vn -0.7562 0.5745 -0.3132
vn 0.8212 0.4582 0.3401
vn 0.7562 0.5745 0.3132
vn -0.8888 0.4582 -0.0000
vn -0.8185 0.5745 -0.0000
vn 0.8888 0.4582 -0.0000
vn 0.8185 0.5745 -0.0000
vn -0.8212 0.4582 0.3401
vn -0.7562 0.5745 0.3132
vn 0.8212 0.4582 -0.3401
vn 0.7562 0.5745 -0.3132
vn -0.6285 0.4582 0.6285
vn -0.5788 0.5745 0.5788
vn 0.6285 0.4582 -0.6285
vn 0.5788 0.5745 -0.5788
vn -0.3401 0.4582 0.8212
vn -0.3132 0.5745 0.7562
vn 0.3401 0.4582 -0.8212
vn 0.3132 0.5745 -0.7562
vn -0.0000 0.4582 0.8888
vn -0.0000 0.5745 0.8185
vn -0.3401 0.4582 -0.8212
vn -0.0000 0.4582 -0.8888
vn -0.0000 0.5745 -0.8185
vn -0.3132 0.5745 -0.7562
vn 0.7050 0.0772 -0.7050
vn 0.9211 0.0772 -0.3815
vn 0.9203 -0.0876 -0.3812
vn 0.7044 -0.0876 -0.7044
vn -0.3815 0.0772 0.9211
vn -0.7050 0.0772 0.7050
vn -0.7044 -0.0876 0.7044
vn -0.3812 -0.0876 0.9203
vn 0.3815 0.0772 -0.9211
vn 0.3812 -0.0876 -0.9203
vn -0.0000 0.0772 0.9970
vn -0.0000 -0.0876 0.9962
vn -0.3815 0.0772 -0.9211
vn -0.0000 0.0772 -0.9970
vn -0.0000 -0.0876 -0.9962
vn -0.3812 -0.0876 -0.9203
vn 0.3815 0.0772 0.9211
vn 0.3812 -0.0876 0.9203
vn -0.7050 0.0772 -0.7050
vn -0.7044 -0.0876 -0.7044
vn 0.7050 0.0772 0.7050
vn 0.7044 -0.0876 0.7044
vn -0.9211 0.0772 -0.3815
vn -0.9203 -0.0876 -0.3812
vn 0.9211 0.0772 0.3815
vn 0.9203 -0.0876 0.3812
vn -0.9970 0.0772 -0.0000
vn -0.9962 -0.0876 -0.0000
vn 0.9970 0.0772 -0.0000
vn 0.9962 -0.0876 -0.0000
vn -0.9211 0.0772 0.3815
vn -0.9203 -0.0876 0.3812
vn 0.3742 0.2098 0.9033
vn -0.0000 0.2098 0.9777
vn -0.6914 0.2098 -0.6914
vn -0.3742 0.2098 -0.9033
vn 0.6914 0.2098 0.6914
vn -0.9033 0.2098 -0.3742
vn 0.9033 0.2098 0.3742
vn -0.9777 0.2098 -0.0000
vn 0.9777 0.2098 -0.0000
vn -0.9033 0.2098 0.3742
vn 0.9033 0.2098 -0.3742
vn -0.6914 0.2098 0.6914
vn 0.6914 0.2098 -0.6914
vn -0.3742 0.2098 0.9033
vn 0.3742 0.2098 -0.9033
vn -0.0000 0.2098 -0.9777
vn -0.0001 1.0000 -0.0000
vn 0.0001 1.0000 -0.0000
vn -0.7700 -0.6380 -0.0000
vn -0.7114 -0.6380 -0.2947
vn 0.7700 -0.6380 -0.0000
vn 0.7114 -0.6380 0.2947
vn -0.7114 -0.6380 0.2947
vn 0.7114 -0.6380 -0.2947
vn -0.5445 -0.6380 0.5445
vn 0.5445 -0.6380 -0.5445
vn -0.2947 -0.6380 0.7114
vn 0.2947 -0.6380 -0.7114
vn -0.0000 -0.6380 0.7700
vn -0.2947 -0.6380 -0.7114
vn -0.0000 -0.6380 -0.7700
vn 0.2947 -0.6380 0.7114
vn -0.5445 -0.6380 -0.5445
vn 0.5445 -0.6380 0.5445
vn 0.7032 0.1046 -0.7032
vn 0.3806 0.1046 -0.9188
vn 0.3740 0.2124 -0.9028
vn 0.6910 0.2124 -0.6910
vn -0.7032 0.1046 0.7032
vn -0.6910 0.2124 0.6910
vn 0.9188 0.1046 -0.3806
vn 0.9028 0.2124 -0.3740
vn 0.9856 -0.1691 -0.0000
vn 0.9106 -0.1691 -0.3772
vn -0.9188 0.1046 0.3806
vn -0.9028 0.2124 0.3740
vn 0.9772 0.2124 -0.0000
vn -0.9945 0.1046 -0.0000
vn -0.9772 0.2124 -0.0000
vn 0.9028 0.2124 0.3740
vn -0.0000 -0.0017 1.0000
vn 0.3827 -0.0017 0.9239
vn 0.3806 0.1046 0.9188
vn -0.9188 0.1046 -0.3806
vn -0.9028 0.2124 -0.3740
vn 0.7032 0.1046 0.7032
vn 0.6910 0.2124 0.6910
vn -0.3806 0.1046 -0.9188
vn -0.3827 -0.0017 -0.9239
vn -0.7071 -0.0017 -0.7071
vn -0.7032 0.1046 -0.7032
vn -0.6910 0.2124 -0.6910
vn 0.3740 0.2124 0.9028
vn 0.7071 -0.0017 0.7071
vn -0.3740 0.2124 -0.9028
vn -0.0000 0.1046 -0.9945
vn -0.0000 0.2124 -0.9772
vn -0.0000 -0.0017 -1.0000
vn -0.9239 -0.0017 0.3827
vn -0.7071 -0.0017 0.7071
vn -0.3827 -0.0017 0.9239
vn 0.3772 -0.1691 -0.9106
vn 0.9106 -0.1691 0.3772
vn 0.9239 -0.0017 -0.3827
vn 0.6969 -0.1691 -0.6969
vn 0.3827 -0.0017 -0.9239
vn 0.7071 -0.0017 -0.7071
vn 0.6969 -0.1691 0.6969
vn -0.9106 -0.1691 0.3772
vn -0.6969 -0.1691 0.6969
vn -0.3772 -0.1691 0.9106
vn -0.0000 -0.1691 0.9856
vn -1.0000 -0.0017 -0.0000
vn -0.9106 -0.1691 -0.3772
vn -0.6969 -0.1691 -0.6969
vn -0.9856 -0.1691 -0.0000
vn -0.9239 -0.0017 -0.3827
vn 0.3772 -0.1691 0.9106
vn -0.3599 -0.3401 0.8688
vn -0.0000 -0.3401 0.9404
vn 0.3599 -0.3401 0.8688
vn -0.6650 -0.3401 -0.6649
vn 0.3599 -0.3401 -0.8688
vn 0.6649 -0.3401 0.6649
vn 0.6649 -0.3401 -0.6649
vn 0.8688 -0.3401 -0.3599
vn -0.8688 -0.3401 0.3599
vn -0.6649 -0.3401 0.6649
vn 0.9404 -0.3401 -0.0000
vn -0.9404 -0.3401 -0.0000
vn 0.8688 -0.3401 0.3599
vn -0.8688 -0.3401 -0.3599
vn 0.7235 0.6219 -0.2997
vn 0.5537 0.6219 -0.5537
vn 0.7235 -0.6219 -0.2997
vn 0.5537 -0.6219 -0.5537
vn -0.6946 -0.7194 -0.0000
vn -0.6417 -0.7194 -0.2658
vn -0.6946 0.7194 -0.0000
vn -0.6417 0.7194 -0.2658
vn -0.6589 -0.7009 0.2729
vn -0.7132 -0.7009 -0.0000
vn -0.6589 0.7009 0.2729
vn -0.7132 0.7009 -0.0000
vn -0.6589 -0.7009 -0.2729
vn -0.6589 0.7009 -0.2729
vn -0.2997 -0.6219 0.7235
vn -0.5537 -0.6219 0.5537
vn -0.2997 0.6219 0.7235
vn -0.5537 0.6219 0.5537
vn -0.0000 -0.7194 0.6946
vn -0.2658 -0.7194 0.6417
vn -0.0000 0.7194 0.6946
vn -0.2658 0.7194 0.6417
vn 0.3066 0.5985 0.7402
vn 0.5665 0.5985 0.5665
vn 0.3066 -0.5985 0.7402
vn 0.5665 -0.5985 0.5665
vn -0.0000 -0.5985 0.8011
vn -0.3066 -0.5985 0.7402
vn -0.0000 0.5985 0.8011
vn -0.3066 0.5985 0.7402
vn -0.0000 -0.6219 0.7831
vn -0.0000 0.6219 0.7831
vn 0.2729 0.7009 0.6589
vn 0.5043 0.7009 0.5043
vn 0.2729 -0.7009 0.6589
vn 0.5043 -0.7009 0.5043
vn 0.2658 0.7194 0.6417
vn 0.4912 0.7194 0.4912
vn 0.2658 -0.7194 0.6417
vn 0.4912 -0.7194 0.4912
vn 0.7235 -0.6219 0.2997
vn 0.5537 -0.6219 0.5537
vn 0.7235 0.6219 0.2997
vn 0.5537 0.6219 0.5537
vn 0.6589 -0.7009 0.2729
vn 0.6589 0.7009 0.2729
vn 0.7402 -0.5985 0.3066
vn 0.7402 0.5985 0.3066
vn 0.7831 0.6219 -0.0000
vn 0.7831 -0.6219 -0.0000
vn 0.8011 0.5985 -0.0000
vn 0.7402 0.5985 -0.3066
vn 0.8011 -0.5985 -0.0000
vn 0.7402 -0.5985 -0.3066
vn 0.5665 0.5985 -0.5665
vn 0.3066 0.5985 -0.7402
vn 0.5665 -0.5985 -0.5665
vn 0.3066 -0.5985 -0.7402
vn 0.6946 0.7194 -0.0000
vn 0.6418 0.7194 -0.2658
vn 0.6417 0.7194 -0.2658
vn 0.6946 -0.7194 -0.0000
vn 0.6417 -0.7194 -0.2658
vn 0.2997 0.6219 -0.7235
vn 0.2997 -0.6219 -0.7235
vn 0.5043 0.7009 -0.5043
vn 0.2729 0.7009 -0.6589
vn 0.5043 -0.7009 -0.5043
vn 0.2729 -0.7009 -0.6589
vn 0.4912 0.7194 -0.4912
vn 0.2658 0.7194 -0.6417
vn 0.4912 -0.7194 -0.4912
vn 0.2658 -0.7194 -0.6417
vn -0.0000 -0.6219 -0.7831
vn -0.0000 0.6219 -0.7831
vn -0.0000 -0.7009 -0.7132
vn -0.0000 0.7009 -0.7132
vn -0.0000 -0.5985 -0.8011
vn -0.0000 0.5985 -0.8011
vn 0.6590 0.7009 -0.2729
vn 0.6589 0.7009 -0.2729
vn 0.6589 -0.7009 -0.2729
vn -0.2997 0.6219 -0.7235
vn -0.5537 0.6219 -0.5537
vn -0.2997 -0.6219 -0.7235
vn -0.5537 -0.6219 -0.5537
vn -0.3066 0.5985 -0.7402
vn -0.5665 0.5985 -0.5665
vn -0.3066 -0.5985 -0.7402
vn -0.5665 -0.5985 -0.5665
vn -0.5665 -0.5985 0.5665
vn -0.7402 -0.5985 0.3066
vn -0.5665 0.5985 0.5665
vn -0.7402 0.5985 0.3066
vn -0.2658 0.7194 -0.6417
vn -0.4912 0.7194 -0.4912
vn -0.2658 -0.7194 -0.6417
vn -0.4912 -0.7194 -0.4912
vn -0.4912 -0.7194 0.4912
vn -0.6417 -0.7194 0.2658
vn -0.4912 0.7194 0.4912
vn -0.6417 0.7194 0.2658
vn -0.7235 -0.6219 0.2997
vn -0.7235 0.6219 0.2997
vn 0.2997 -0.6219 0.7235
vn 0.2997 0.6219 0.7235
vn 0.7132 0.7009 -0.0000
vn 0.7132 -0.7009 -0.0000
vn -0.0000 -0.7194 -0.6946
vn -0.0000 0.7194 -0.6946
vn -0.2729 -0.7009 -0.6589
vn -0.2729 0.7009 -0.6589
vn -0.7402 -0.5985 -0.3066
vn -0.7402 0.5985 -0.3066
vn -0.7235 -0.6219 -0.2997
vn -0.7235 0.6219 -0.2997
vn -0.8011 -0.5985 -0.0000
vn -0.8011 0.5985 -0.0000
vn -0.7831 -0.6219 -0.0000
vn -0.7831 0.6219 -0.0000
vn -0.2729 -0.7009 0.6589
vn -0.5043 -0.7009 0.5043
vn -0.2729 0.7009 0.6589
vn -0.5043 0.7009 0.5043
vn -0.5043 0.7009 -0.5043
vn -0.5043 -0.7009 -0.5043
vn -0.0000 -0.7009 0.7132
vn -0.0000 0.7009 0.7132
vn 0.6417 0.7194 0.2658
vn 0.6417 -0.7194 0.2658
vn -0.0000 -0.6667 -0.7453
vn 0.2852 -0.6667 -0.6886
vn -0.2852 -0.6667 -0.6886
vn -0.0000 -0.6667 0.7453
vn -0.2852 -0.6667 0.6886
vn 0.5270 -0.6667 -0.5270
vn -0.5270 -0.6667 0.5270
vn 0.6886 -0.6667 -0.2852
vn -0.6886 -0.6667 0.2852
vn 0.7453 -0.6667 -0.0000
vn -0.7453 -0.6667 -0.0000
vn 0.6886 -0.6667 0.2852
vn -0.6886 -0.6667 -0.2852
vn 0.5270 -0.6667 0.5270
vn -0.5270 -0.6667 -0.5270
vn 0.2852 -0.6667 0.6886
vn -0.6859 0.2430 0.6859
vn -0.8962 0.2430 0.3712
vn 0.8962 0.2430 -0.3712
vn 0.9700 0.2430 -0.0000
vn -0.9700 0.2430 -0.0000
vn 0.8962 0.2430 0.3712
vn -0.8962 0.2430 -0.3712
vn 0.6859 0.2430 0.6859
vn -0.6859 0.2430 -0.6859
vn 0.3712 0.2430 0.8962
vn -0.3712 0.2430 -0.8962
vn -0.0000 0.2430 0.9700
vn -0.0000 0.2430 -0.9700
vn 0.3712 0.2430 -0.8962
vn -0.3712 0.2430 0.8962
vn 0.6859 0.2430 -0.6859
vn -0.6704 0.3179 -0.6704
vn -0.3628 0.3179 -0.8759
vn 0.3628 0.3179 0.8759
vn -0.0000 0.3179 0.9481
vn -0.0000 0.3179 -0.9481
vn 0.3628 0.3179 -0.8759
vn -0.3628 0.3179 0.8759
vn 0.6704 0.3179 -0.6704
vn -0.6704 0.3179 0.6704
vn 0.8759 0.3179 -0.3628
vn -0.8759 0.3179 0.3628
vn 0.9481 0.3179 -0.0000
vn -0.9481 0.3179 -0.0000
vn 0.8759 0.3179 0.3628
vn -0.8759 0.3179 -0.3628
vn 0.6704 0.3179 0.6704
vn 0.8955 0.2458 0.3709
vn 0.6854 0.2458 0.6854
vn -0.8955 0.2458 -0.3709
vn -0.6854 0.2458 -0.6854
vn 0.3709 0.2458 0.8955
vn -0.3709 0.2458 -0.8955
vn -0.0000 0.2458 0.9693
vn -0.0000 0.2458 -0.9693
vn 0.3709 0.2458 -0.8955
vn -0.3709 0.2458 0.8955
vn 0.6854 0.2458 -0.6854
vn -0.6854 0.2458 0.6854
vn 0.8955 0.2458 -0.3709
vn -0.8955 0.2458 0.3709
vn 0.9693 0.2458 -0.0000
vn -0.9693 0.2458 -0.0000
vn 0.8919 -0.2607 0.3695
vn 0.6827 -0.2607 0.6827
vn -0.8919 -0.2607 -0.3695
vn -0.6827 -0.2607 -0.6827
vn 0.3695 -0.2607 0.8919
vn -0.3695 -0.2607 -0.8919
vn -0.0000 -0.2607 0.9654
vn -0.0000 -0.2607 -0.9654
vn 0.3695 -0.2607 -0.8919
vn -0.3695 -0.2607 0.8919
vn 0.6827 -0.2607 -0.6827
vn -0.6827 -0.2607 0.6827
vn 0.8919 -0.2607 -0.3695
vn -0.8919 -0.2607 0.3695
vn 0.9654 -0.2607 -0.0000
vn -0.9654 -0.2607 -0.0000
vn -0.0000 0.1473 -0.9891
vn 0.3785 0.1473 -0.9138
vn -0.3785 0.1473 -0.9138
vn -0.0000 0.1473 0.9891
vn -0.3785 0.1473 0.9138
vn 0.6994 0.1473 -0.6994
vn -0.6994 0.1473 0.6994
vn 0.9138 0.1473 -0.3785
vn -0.9138 0.1473 0.3785
vn 0.9891 0.1473 -0.0000
vn -0.9891 0.1473 -0.0000
vn 0.9138 0.1473 0.3785
vn -0.9138 0.1473 -0.3785
vn 0.6994 0.1473 0.6994
vn -0.6994 0.1473 -0.6994
vn 0.3785 0.1473 0.9138
vn -0.7066 -0.0375 0.7066
vn -0.9232 -0.0375 0.3824
vn 0.9232 -0.0375 -0.3824
vn 0.9993 -0.0375 -0.0000
vn -0.9993 -0.0375 -0.0000
vn 0.9232 -0.0375 0.3824
vn -0.9232 -0.0375 -0.3824
vn 0.7066 -0.0375 0.7066
vn -0.7066 -0.0375 -0.7066
vn 0.3824 -0.0375 0.9232
vn -0.3824 -0.0375 -0.9232
vn -0.0000 -0.0375 0.9993
vn -0.0000 -0.0375 -0.9993
vn 0.3824 -0.0375 -0.9232
vn -0.3824 -0.0375 0.9232
vn 0.7066 -0.0375 -0.7066
vt 0.647113 0.076497
vt 0.636104 0.076497
vt 0.636104 0.045270
vt 0.647113 0.045270
vt 0.647113 0.361058
vt 0.636104 0.361058
vt 0.636104 0.329639
vt 0.647113 0.329639
vt 0.647113 0.107916
vt 0.636104 0.107916
vt 0.647113 0.392940
vt 0.636104 0.392940
vt 0.647113 0.139798
vt 0.636104 0.139798
vt 0.647113 0.424821
vt 0.636104 0.424821
vt 0.647113 0.171679
vt 0.636104 0.171679
vt 0.647113 0.456240
vt 0.636104 0.456240
vt 0.647113 0.203098
vt 0.636104 0.203098
vt 0.647113 0.487467
vt 0.636104 0.487467
vt 0.647113 0.234325
vt 0.636104 0.234325
vt 0.647113 0.519511
vt 0.636104 0.519511
vt 0.647113 0.298412
vt 0.636104 0.298412
vt 0.636104 0.266369
vt 0.647113 0.266369
vt 0.636104 0.013227
vt 0.647113 0.013227
vt 0.171636 0.680504
vt 0.175926 0.677637
vt 0.189369 0.710091
vt 0.184308 0.711098
vt 0.053918 0.798223
vt 0.051052 0.802513
vt 0.026213 0.777674
vt 0.030503 0.774807
vt 0.117627 0.644416
vt 0.118634 0.639355
vt 0.151087 0.652798
vt 0.148221 0.657088
vt 0.084512 0.810896
vt 0.083506 0.815956
vt 0.084512 0.644415
vt 0.083506 0.639355
vt 0.117627 0.810896
vt 0.118633 0.815956
vt 0.053918 0.657088
vt 0.051052 0.652798
vt 0.148221 0.798223
vt 0.151088 0.802514
vt 0.030503 0.680504
vt 0.026213 0.677637
vt 0.171636 0.774808
vt 0.175926 0.777674
vt 0.017831 0.711098
vt 0.012770 0.710091
vt 0.184308 0.744213
vt 0.189369 0.745220
vt 0.017831 0.744213
vt 0.012770 0.745220
vt 0.450161 0.352699
vt 0.485087 0.352699
vt 0.485087 0.387393
vt 0.450161 0.387393
vt 0.450161 0.038691
vt 0.485087 0.038691
vt 0.485087 0.073173
vt 0.450161 0.073173
vt 0.450161 0.318217
vt 0.485087 0.318217
vt 0.450161 0.003307
vt 0.485087 0.003307
vt 0.450161 0.247451
vt 0.485087 0.247451
vt 0.485087 0.282834
vt 0.450161 0.282834
vt 0.450161 0.526977
vt 0.485087 0.526977
vt 0.485087 0.562360
vt 0.450161 0.562360
vt 0.450161 0.212969
vt 0.485087 0.212969
vt 0.450161 0.492495
vt 0.485087 0.492495
vt 0.450161 0.178275
vt 0.485087 0.178275
vt 0.450161 0.457802
vt 0.485087 0.457802
vt 0.450161 0.143071
vt 0.485087 0.143071
vt 0.450161 0.422597
vt 0.485087 0.422597
vt 0.450161 0.107866
vt 0.485087 0.107866
vt 0.210194 0.669024
vt 0.220488 0.675902
vt 0.208894 0.703893
vt 0.196751 0.701477
vt 0.359907 0.769059
vt 0.349612 0.762180
vt 0.361206 0.734190
vt 0.373349 0.736605
vt 0.235033 0.644185
vt 0.241911 0.654479
vt 0.335068 0.793898
vt 0.328189 0.783603
vt 0.267487 0.630742
vt 0.269902 0.642885
vt 0.302614 0.807340
vt 0.300199 0.795197
vt 0.302614 0.630742
vt 0.300199 0.642885
vt 0.267486 0.807340
vt 0.269902 0.795197
vt 0.335068 0.644185
vt 0.328189 0.654479
vt 0.210194 0.769059
vt 0.220488 0.762180
vt 0.241911 0.783603
vt 0.235033 0.793897
vt 0.359907 0.669024
vt 0.349613 0.675902
vt 0.196751 0.736605
vt 0.208894 0.734190
vt 0.373349 0.701477
vt 0.361207 0.703893
vt 0.595223 0.045015
vt 0.575932 0.045015
vt 0.575932 0.015920
vt 0.595223 0.015920
vt 0.595223 0.303217
vt 0.575932 0.303217
vt 0.575932 0.274863
vt 0.595223 0.274863
vt 0.595223 0.073369
vt 0.575932 0.073369
vt 0.595223 0.331745
vt 0.575932 0.331745
vt 0.595223 0.101897
vt 0.575932 0.101897
vt 0.595223 0.360693
vt 0.575932 0.360693
vt 0.595223 0.130844
vt 0.575932 0.130844
vt 0.595223 0.389640
vt 0.575932 0.389640
vt 0.595223 0.159792
vt 0.575932 0.159792
vt 0.595223 0.418168
vt 0.575932 0.418168
vt 0.595223 0.188320
vt 0.575932 0.188320
vt 0.595223 0.446522
vt 0.575932 0.446522
vt 0.595223 0.216674
vt 0.575932 0.216674
vt 0.595223 0.475617
vt 0.575932 0.475617
vt 0.575932 0.245768
vt 0.595223 0.245768
vt 0.134722 0.836417
vt 0.135491 0.835266
vt 0.157530 0.857304
vt 0.156378 0.858073
vt 0.075800 0.978667
vt 0.075530 0.980025
vt 0.046736 0.968098
vt 0.047505 0.966947
vt 0.106427 0.824697
vt 0.106697 0.823339
vt 0.106427 0.978667
vt 0.106697 0.980025
vt 0.047505 0.836417
vt 0.046736 0.835266
vt 0.075530 0.823339
vt 0.075800 0.824697
vt 0.134722 0.966947
vt 0.135491 0.968098
vt 0.025848 0.858073
vt 0.024697 0.857304
vt 0.156379 0.945291
vt 0.157530 0.946060
vt 0.014128 0.886369
vt 0.012770 0.886099
vt 0.168099 0.916995
vt 0.169457 0.917265
vt 0.014128 0.916995
vt 0.012770 0.917265
vt 0.168099 0.886369
vt 0.169457 0.886099
vt 0.025848 0.945291
vt 0.024697 0.946060
vt 0.539885 0.130091
vt 0.543443 0.130091
vt 0.543443 0.159118
vt 0.539885 0.159118
vt 0.539885 0.360574
vt 0.543443 0.360574
vt 0.543443 0.389601
vt 0.539885 0.389601
vt 0.539885 0.101063
vt 0.543443 0.101063
vt 0.539885 0.331546
vt 0.543443 0.331546
vt 0.539885 0.072456
vt 0.543443 0.072456
vt 0.539885 0.302939
vt 0.543443 0.302939
vt 0.539885 0.044024
vt 0.543443 0.044024
vt 0.539885 0.274507
vt 0.543443 0.274507
vt 0.539885 0.014849
vt 0.543443 0.014849
vt 0.539885 0.216157
vt 0.543443 0.216157
vt 0.543443 0.245332
vt 0.539885 0.245332
vt 0.539885 0.446640
vt 0.543443 0.446640
vt 0.543443 0.475815
vt 0.539885 0.475815
vt 0.539885 0.187725
vt 0.543443 0.187725
vt 0.539885 0.418208
vt 0.543443 0.418208
vt 0.966259 0.062238
vt 0.950714 0.065330
vt 0.941253 0.042488
vt 0.954431 0.033683
vt 0.810876 0.062238
vt 0.826421 0.065330
vt 0.826421 0.090053
vt 0.810876 0.093145
vt 0.966259 0.093145
vt 0.950714 0.090053
vt 0.822704 0.033683
vt 0.835882 0.042488
vt 0.954431 0.121700
vt 0.941253 0.112894
vt 0.844559 0.011828
vt 0.853364 0.025006
vt 0.932576 0.143555
vt 0.923770 0.130376
vt 0.873114 0.000000
vt 0.876206 0.015545
vt 0.904021 0.155383
vt 0.900929 0.139838
vt 0.904021 -0.000000
vt 0.900929 0.015545
vt 0.873114 0.155383
vt 0.876206 0.139838
vt 0.932576 0.011828
vt 0.923770 0.025006
vt 0.844559 0.143555
vt 0.853364 0.130376
vt 0.835882 0.112894
vt 0.822704 0.121700
vt 0.884234 0.909469
vt 0.884234 0.939509
vt 0.871455 0.936967
vt 0.871455 0.912011
vt 0.231021 0.007474
vt 0.205135 0.007474
vt 0.205135 0.004649
vt 0.231021 0.004649
vt 0.383742 0.609492
vt 0.409627 0.609492
vt 0.409627 0.612176
vt 0.383742 0.612176
vt 0.000644 0.131930
vt 0.026529 0.131930
vt 0.026529 0.242086
vt 0.000644 0.242086
vt 0.231021 0.242086
vt 0.231021 0.131930
vt 0.256246 0.131930
vt 0.256246 0.242086
vt 0.077135 0.609492
vt 0.077135 0.495312
vt 0.102890 0.495312
vt 0.102890 0.609492
vt 0.281627 0.252131
vt 0.307381 0.252131
vt 0.307381 0.362288
vt 0.281627 0.362288
vt 0.741510 0.468771
vt 0.741510 0.499502
vt 0.734511 0.499502
vt 0.734511 0.468771
vt 0.741510 0.188730
vt 0.741510 0.219650
vt 0.734511 0.219650
vt 0.734511 0.188730
vt 0.741510 0.437851
vt 0.734511 0.437851
vt 0.741510 0.157355
vt 0.734511 0.157355
vt 0.741510 0.406476
vt 0.734511 0.406476
vt 0.741510 0.125980
vt 0.734511 0.125980
vt 0.741510 0.375101
vt 0.734511 0.375101
vt 0.741510 0.095060
vt 0.734511 0.095060
vt 0.741510 0.344181
vt 0.734511 0.344181
vt 0.741510 0.064329
vt 0.734511 0.064329
vt 0.741510 0.313450
vt 0.734511 0.313450
vt 0.741510 0.032795
vt 0.734511 0.032795
vt 0.741510 0.250381
vt 0.741510 0.281915
vt 0.734511 0.281915
vt 0.734511 0.250381
vt 0.741510 0.531036
vt 0.734511 0.531036
vt 0.414896 0.969186
vt 0.445166 0.981725
vt 0.444583 0.984659
vt 0.413234 0.971674
vt 0.531369 0.852713
vt 0.508202 0.829545
vt 0.509863 0.827058
vt 0.533857 0.851051
vt 0.379190 0.915748
vt 0.391728 0.946018
vt 0.389241 0.947680
vt 0.376256 0.916331
vt 0.543908 0.882984
vt 0.546842 0.882400
vt 0.379190 0.882983
vt 0.376256 0.882400
vt 0.543908 0.915748
vt 0.546842 0.916332
vt 0.391728 0.852713
vt 0.389241 0.851051
vt 0.531369 0.946019
vt 0.533857 0.947680
vt 0.414896 0.829545
vt 0.413234 0.827058
vt 0.508201 0.969186
vt 0.509863 0.971674
vt 0.445167 0.817007
vt 0.444583 0.814073
vt 0.477931 0.981725
vt 0.478514 0.984659
vt 0.477931 0.817007
vt 0.478515 0.814073
vt 0.510018 0.207503
vt 0.510018 0.173216
vt 0.520980 0.173216
vt 0.520980 0.207503
vt 0.510018 0.517832
vt 0.510018 0.483754
vt 0.520980 0.483754
vt 0.520980 0.517832
vt 0.510018 0.241581
vt 0.520980 0.241581
vt 0.510018 0.552801
vt 0.520980 0.552801
vt 0.510018 0.311519
vt 0.510018 0.276550
vt 0.520980 0.276550
vt 0.520980 0.311519
vt 0.510018 0.035267
vt 0.510018 0.000299
vt 0.520980 0.000299
vt 0.520980 0.035267
vt 0.510018 0.345596
vt 0.520980 0.345596
vt 0.510018 0.069345
vt 0.520980 0.069345
vt 0.510018 0.379884
vt 0.520980 0.379884
vt 0.510018 0.103632
vt 0.520980 0.103632
vt 0.510018 0.414675
vt 0.520980 0.414675
vt 0.510018 0.138424
vt 0.520980 0.138424
vt 0.510018 0.449467
vt 0.520980 0.449467
vt 0.520389 0.791026
vt 0.488407 0.804273
vt 0.487466 0.799544
vt 0.517710 0.787017
vt 0.421809 0.643491
vt 0.453790 0.630243
vt 0.454731 0.634973
vt 0.424488 0.647500
vt 0.544867 0.766548
vt 0.540857 0.763869
vt 0.397331 0.667968
vt 0.401341 0.670647
vt 0.558114 0.734567
vt 0.553384 0.733626
vt 0.384084 0.699950
vt 0.388813 0.700891
vt 0.558114 0.699950
vt 0.553384 0.700891
vt 0.384084 0.734567
vt 0.388813 0.733626
vt 0.544867 0.667968
vt 0.540857 0.670647
vt 0.421809 0.791026
vt 0.397331 0.766548
vt 0.401341 0.763869
vt 0.424488 0.787017
vt 0.520389 0.643491
vt 0.517710 0.647500
vt 0.453791 0.804273
vt 0.454731 0.799544
vt 0.488407 0.630243
vt 0.487466 0.634973
vt 0.684111 0.499379
vt 0.684111 0.532393
vt 0.673712 0.532393
vt 0.673712 0.499379
vt 0.684111 0.206396
vt 0.684111 0.238569
vt 0.673712 0.238569
vt 0.673712 0.206396
vt 0.684111 0.467206
vt 0.673712 0.467206
vt 0.684111 0.174025
vt 0.673712 0.174025
vt 0.684111 0.434836
vt 0.673712 0.434836
vt 0.684111 0.141178
vt 0.673712 0.141178
vt 0.684111 0.401988
vt 0.673712 0.401988
vt 0.684111 0.108331
vt 0.673712 0.108331
vt 0.684111 0.369141
vt 0.673712 0.369141
vt 0.684111 0.075960
vt 0.673712 0.075960
vt 0.684111 0.336770
vt 0.673712 0.336770
vt 0.684111 0.043787
vt 0.673712 0.043787
vt 0.684111 0.304597
vt 0.673712 0.304597
vt 0.684111 0.010773
vt 0.673712 0.010773
vt 0.684111 0.271583
vt 0.673712 0.271583
vt 0.876218 0.325096
vt 0.906359 0.325096
vt 0.906672 0.326666
vt 0.875905 0.326666
vt 0.934207 0.185098
vt 0.906359 0.173563
vt 0.906671 0.171993
vt 0.935096 0.183767
vt 0.848370 0.313561
vt 0.847481 0.314892
vt 0.955520 0.206411
vt 0.956851 0.205522
vt 0.815522 0.264400
vt 0.827057 0.292248
vt 0.825726 0.293137
vt 0.813952 0.264713
vt 0.967055 0.234258
vt 0.968625 0.233946
vt 0.815522 0.234258
vt 0.813952 0.233946
vt 0.967055 0.264400
vt 0.968625 0.264712
vt 0.827057 0.206411
vt 0.825726 0.205522
vt 0.955520 0.292247
vt 0.956851 0.293137
vt 0.848370 0.185098
vt 0.847481 0.183767
vt 0.934207 0.313561
vt 0.935096 0.314892
vt 0.876217 0.173563
vt 0.875905 0.171993
vt 0.776148 0.131787
vt 0.776148 0.162320
vt 0.771855 0.162320
vt 0.771855 0.131787
vt 0.776148 0.374219
vt 0.776148 0.404752
vt 0.771855 0.404752
vt 0.771855 0.374219
vt 0.776148 0.101255
vt 0.771855 0.101255
vt 0.776148 0.343686
vt 0.771855 0.343686
vt 0.776148 0.071165
vt 0.771855 0.071165
vt 0.776148 0.313597
vt 0.771855 0.313597
vt 0.776148 0.041259
vt 0.771855 0.041259
vt 0.776148 0.283691
vt 0.771855 0.283691
vt 0.776148 0.010572
vt 0.771855 0.010572
vt 0.776148 0.222316
vt 0.776148 0.253003
vt 0.771855 0.253003
vt 0.771855 0.222316
vt 0.776148 0.464747
vt 0.776148 0.495435
vt 0.771855 0.495435
vt 0.771855 0.464747
vt 0.776148 0.192410
vt 0.771855 0.192410
vt 0.776148 0.434841
vt 0.771855 0.434841
vt 0.744708 0.967262
vt 0.733212 0.939509
vt 0.745991 0.936967
vt 0.755541 0.960024
vt 0.851496 0.860474
vt 0.872738 0.881716
vt 0.861904 0.888954
vt 0.844258 0.871308
vt 0.765949 0.988504
vt 0.773188 0.977670
vt 0.823743 0.848978
vt 0.821201 0.861757
vt 0.793702 1.000000
vt 0.796244 0.987221
vt 0.793703 0.848978
vt 0.796245 0.861757
vt 0.823743 1.000000
vt 0.821201 0.987221
vt 0.765949 0.860474
vt 0.773188 0.871307
vt 0.851496 0.988504
vt 0.844257 0.977671
vt 0.744708 0.881715
vt 0.755541 0.888954
vt 0.872738 0.967263
vt 0.861904 0.960024
vt 0.733212 0.909469
vt 0.745991 0.912011
vt 0.813337 0.435362
vt 0.813337 0.405010
vt 0.833079 0.432836
vt 0.824952 0.463403
vt 0.824952 0.376968
vt 0.853638 0.396136
vt 0.846414 0.355506
vt 0.879677 0.363097
vt 0.874456 0.343891
vt 0.904808 0.343891
vt 0.864123 0.458363
vt 0.846414 0.484865
vt 0.889632 0.420186
vt 0.915141 0.382009
vt 0.932849 0.355506
vt 0.899586 0.477275
vt 0.874456 0.496481
vt 0.925625 0.444236
vt 0.946185 0.407536
vt 0.954311 0.376968
vt 0.932849 0.484865
vt 0.904807 0.496481
vt 0.954311 0.463403
vt 0.965926 0.435362
vt 0.965926 0.405010
vt 0.200169 0.916777
vt 0.200169 0.885567
vt 0.222067 0.913822
vt 0.212113 0.945611
vt 0.212113 0.856733
vt 0.242627 0.877122
vt 0.234181 0.834665
vt 0.268666 0.844083
vt 0.263015 0.822721
vt 0.294225 0.822721
vt 0.253111 0.939349
vt 0.234181 0.967680
vt 0.278620 0.901172
vt 0.304129 0.862995
vt 0.323059 0.834664
vt 0.288575 0.958261
vt 0.263015 0.979623
vt 0.314614 0.925222
vt 0.335173 0.888522
vt 0.345128 0.856733
vt 0.323059 0.967680
vt 0.294225 0.979623
vt 0.345128 0.945611
vt 0.357071 0.916777
vt 0.357071 0.885567
vt 0.281627 0.131930
vt 0.307381 0.131930
vt 0.307381 0.242086
vt 0.281627 0.242086
vt 0.154025 0.609492
vt 0.179250 0.609492
vt 0.179250 0.612176
vt 0.154025 0.612176
vt 0.358516 0.609492
vt 0.358516 0.612176
vt 0.128644 0.609492
vt 0.128644 0.612176
vt 0.358516 0.373570
vt 0.383742 0.373570
vt 0.383742 0.483727
vt 0.358516 0.483727
vt 0.333136 0.373570
vt 0.333136 0.483727
vt 0.102890 0.121654
vt 0.102890 0.007474
vt 0.128644 0.007474
vt 0.128644 0.121654
vt 0.333136 0.609492
vt 0.333136 0.612176
vt 0.102890 0.612176
vt 0.077135 0.483727
vt 0.077135 0.373570
vt 0.102890 0.373570
vt 0.102890 0.483727
vt 0.179250 0.252131
vt 0.205135 0.252131
vt 0.205135 0.362288
vt 0.179250 0.362288
vt 0.154025 0.362288
vt 0.154025 0.252131
vt 0.102890 0.242086
vt 0.102890 0.131930
vt 0.128644 0.131930
vt 0.128644 0.242086
vt 0.307381 0.609492
vt 0.307381 0.612176
vt 0.077135 0.612176
vt 0.333136 0.131930
vt 0.358516 0.131930
vt 0.358516 0.242086
vt 0.333136 0.242086
vt 0.383742 0.131930
vt 0.409627 0.131930
vt 0.409627 0.242086
vt 0.383742 0.242086
vt 0.000644 0.252131
vt 0.026529 0.252131
vt 0.026529 0.362288
vt 0.000644 0.362288
vt 0.000644 0.495312
vt 0.026529 0.495312
vt 0.026529 0.609492
vt 0.000644 0.609492
vt 0.281627 0.609492
vt 0.281627 0.612176
vt 0.051755 0.609492
vt 0.051755 0.612176
vt 0.102890 0.362288
vt 0.102890 0.252131
vt 0.128644 0.252131
vt 0.128644 0.362288
vt 0.205135 0.242086
vt 0.205135 0.131930
vt 0.231021 0.609492
vt 0.231021 0.495312
vt 0.256246 0.495312
vt 0.256246 0.609492
vt 0.231021 0.362288
vt 0.231021 0.252131
vt 0.256246 0.252131
vt 0.256246 0.362288
vt 0.256246 0.612176
vt 0.026529 0.612176
vt 0.281627 0.373570
vt 0.281627 0.483727
vt 0.256246 0.483727
vt 0.256246 0.373570
vt 0.358516 0.252131
vt 0.383742 0.252131
vt 0.383742 0.362288
vt 0.358516 0.362288
vt 0.051755 0.495312
vt 0.231021 0.612176
vt 0.000644 0.612176
vt 0.205135 0.609492
vt 0.205135 0.612176
vt 0.231021 0.373570
vt 0.231021 0.483727
vt 0.205135 0.483727
vt 0.205135 0.373570
vt 0.205135 0.495312
vt 0.307381 0.373570
vt 0.307381 0.483727
vt 0.333136 0.495312
vt 0.358516 0.495312
vt 0.409627 0.373570
vt 0.409627 0.483727
vt 0.051755 0.131930
vt 0.051755 0.242086
vt 0.383742 0.495312
vt 0.409627 0.495312
vt 0.077135 0.242086
vt 0.077135 0.131930
vt 0.179250 0.007474
vt 0.205135 0.121654
vt 0.179250 0.121654
vt 0.154025 0.483727
vt 0.154025 0.373570
vt 0.179250 0.373570
vt 0.179250 0.483727
vt 0.077135 0.121654
vt 0.077135 0.007474
vt 0.128644 0.495312
vt 0.154025 0.121654
vt 0.154025 0.007474
vt 0.179250 0.495312
vt 0.179250 0.131930
vt 0.179250 0.242086
vt 0.154025 0.242086
vt 0.154025 0.131930
vt 0.154025 0.495312
vt 0.051755 0.007474
vt 0.051755 0.121654
vt 0.333136 0.252131
vt 0.333136 0.362288
vt 0.333136 0.007474
vt 0.358516 0.007474
vt 0.358516 0.121654
vt 0.333136 0.121654
vt 0.409627 0.252131
vt 0.409627 0.362288
vt 0.383742 0.007474
vt 0.409627 0.007474
vt 0.409627 0.121654
vt 0.383742 0.121654
vt 0.307381 0.495312
vt 0.026529 0.483727
vt 0.026529 0.373570
vt 0.051755 0.373570
vt 0.051755 0.483727
vt 0.000644 0.373570
vt 0.000644 0.483727
vt 0.051755 0.252131
vt 0.077135 0.252131
vt 0.077135 0.362288
vt 0.051755 0.362288
vt 0.128644 0.373570
vt 0.128644 0.483727
vt 0.231021 0.121654
vt 0.281627 0.007474
vt 0.281627 0.121654
vt 0.256246 0.121654
vt 0.256246 0.007474
vt 0.307381 0.007474
vt 0.307381 0.121654
vt 0.281627 0.495312
vt 0.026529 0.121654
vt 0.026529 0.007474
vt 0.000644 0.007474
vt 0.000644 0.121654
vt 0.383742 0.004649
vt 0.409627 0.004649
vt 0.000644 0.004649
vt 0.026529 0.004649
vt 0.256246 0.004649
vt 0.179250 0.004649
vt 0.051755 0.004649
vt 0.154025 0.004649
vt 0.128644 0.004649
vt 0.333136 0.004649
vt 0.358516 0.004649
vt 0.102890 0.004649
vt 0.307381 0.004649
vt 0.077135 0.004649
vt 0.281627 0.004649
vt 0.154025 0.126792
vt 0.128644 0.126792
vt 0.281627 0.489519
vt 0.307381 0.489519
vt 0.307381 0.367929
vt 0.333136 0.367929
vt 0.281627 0.367929
vt 0.358516 0.126792
vt 0.383742 0.126792
vt 0.383742 0.489519
vt 0.409627 0.489519
vt 0.051755 0.247109
vt 0.026529 0.247109
vt 0.383742 0.247109
vt 0.409627 0.247109
vt 0.409627 0.126792
vt 0.051755 0.367929
vt 0.026529 0.367929
vt 0.051755 0.489519
vt 0.026529 0.489519
vt 0.051755 0.126792
vt 0.077135 0.126792
vt 0.077135 0.367929
vt 0.077135 0.247109
vt 0.102890 0.126792
vt 0.128644 0.247109
vt 0.102890 0.247109
vt 0.179250 0.247109
vt 0.154025 0.247109
vt 0.128644 0.489519
vt 0.102890 0.489519
vt 0.179250 0.126792
vt 0.179250 0.367929
vt 0.154025 0.367929
vt 0.179250 0.489519
vt 0.154025 0.489519
vt 0.205135 0.126792
vt 0.205135 0.367929
vt 0.205135 0.247109
vt 0.128644 0.367929
vt 0.256246 0.126792
vt 0.231021 0.126792
vt 0.256246 0.247109
vt 0.231021 0.247109
vt 0.333136 0.247109
vt 0.358516 0.247109
vt 0.256246 0.489519
vt 0.231021 0.489519
vt 0.333136 0.489519
vt 0.358516 0.489519
vt 0.333136 0.126792
vt 0.000644 0.489519
vt 0.000644 0.247109
vt 0.000644 0.126792
vt 0.026529 0.126792
vt 0.102890 0.367929
vt 0.205135 0.489519
vt 0.231021 0.367929
vt 0.281627 0.247109
vt 0.281627 0.126792
vt 0.307381 0.247109
vt 0.307381 0.126792
vt 0.358516 0.367929
vt 0.383742 0.367929
vt 0.256246 0.367929
vt 0.000644 0.367929
vt 0.077135 0.489519
vt 0.409627 0.367929
vt 0.697752 0.271583
vt 0.697752 0.304597
vt 0.697752 0.238569
vt 0.697752 0.010773
vt 0.697752 0.043787
vt 0.697752 0.336770
vt 0.697752 0.075960
vt 0.697752 0.369141
vt 0.697752 0.108331
vt 0.697752 0.401988
vt 0.697752 0.141178
vt 0.697752 0.434836
vt 0.697752 0.174025
vt 0.697752 0.467206
vt 0.697752 0.206396
vt 0.697752 0.499379
vt 0.697752 0.532393
vt 0.498761 0.483754
vt 0.498761 0.449467
vt 0.498761 0.173216
vt 0.498761 0.138424
vt 0.498761 0.414675
vt 0.498761 0.103632
vt 0.498761 0.379884
vt 0.498761 0.069345
vt 0.498761 0.345596
vt 0.498761 0.035267
vt 0.498761 0.311519
vt 0.498761 0.000299
vt 0.498761 0.276550
vt 0.498761 0.241581
vt 0.498761 0.552801
vt 0.498761 0.517832
vt 0.498761 0.207503
vt 0.748488 0.219650
vt 0.748488 0.250381
vt 0.748488 0.499502
vt 0.748488 0.531036
vt 0.748488 0.281915
vt 0.748488 0.313450
vt 0.748488 0.032795
vt 0.748488 0.064329
vt 0.748488 0.344181
vt 0.748488 0.095060
vt 0.748488 0.375101
vt 0.748488 0.125980
vt 0.748488 0.406476
vt 0.748488 0.157355
vt 0.748488 0.437851
vt 0.748488 0.188730
vt 0.748488 0.468771
vt 0.779559 0.404752
vt 0.779559 0.434841
vt 0.779559 0.162320
vt 0.779559 0.192410
vt 0.779559 0.464747
vt 0.779559 0.222316
vt 0.779559 0.495435
vt 0.779559 0.253003
vt 0.779559 0.283691
vt 0.779559 0.010572
vt 0.779559 0.041259
vt 0.779559 0.313597
vt 0.779559 0.071165
vt 0.779559 0.343686
vt 0.779559 0.101255
vt 0.779559 0.374219
vt 0.779559 0.131787
vt 0.536547 0.389601
vt 0.536547 0.418208
vt 0.536547 0.159118
vt 0.536547 0.187725
vt 0.536547 0.446640
vt 0.536547 0.216157
vt 0.536547 0.475815
vt 0.536547 0.245332
vt 0.536547 0.274507
vt 0.536547 0.014849
vt 0.536547 0.044024
vt 0.536547 0.302939
vt 0.536547 0.072456
vt 0.536547 0.331546
vt 0.536547 0.101063
vt 0.536547 0.360574
vt 0.536547 0.130091
vt 0.613370 0.245768
vt 0.613370 0.216674
vt 0.613370 0.274863
vt 0.613370 0.475617
vt 0.613370 0.446522
vt 0.613370 0.188320
vt 0.613370 0.418168
vt 0.613370 0.159792
vt 0.613370 0.389640
vt 0.613370 0.130844
vt 0.613370 0.360693
vt 0.613370 0.101897
vt 0.613370 0.331745
vt 0.613370 0.073369
vt 0.613370 0.303217
vt 0.613370 0.045015
vt 0.613370 0.015920
vt 0.415234 0.073173
vt 0.415234 0.107866
vt 0.415234 0.387393
vt 0.415234 0.422597
vt 0.415234 0.143071
vt 0.415234 0.457802
vt 0.415234 0.178275
vt 0.415234 0.492495
vt 0.415234 0.212969
vt 0.415234 0.526977
vt 0.415234 0.247451
vt 0.415234 0.562360
vt 0.415234 0.282834
vt 0.415234 0.318217
vt 0.415234 0.003307
vt 0.415234 0.038691
vt 0.415234 0.352699
s 1
f 11/1/1 27/2/1 26/3/2 10/4/2
f 4/5/3 20/6/3 19/7/4 3/8/4
f 12/9/5 28/10/5 27/2/1 11/1/1
f 5/11/6 21/12/6 20/6/3 4/5/3
f 13/13/7 29/14/7 28/10/5 12/9/5
f 6/15/8 22/16/8 21/12/6 5/11/6
f 14/17/9 30/18/9 29/14/7 13/13/7
f 7/19/10 23/20/10 22/16/8 6/15/8
f 15/21/11 31/22/11 30/18/9 14/17/9
f 8/23/12 24/24/12 23/20/10 7/19/10
f 16/25/13 32/26/13 31/22/11 15/21/11
f 9/27/14 25/28/14 24/24/12 8/23/12
f 2/29/15 18/30/15 17/31/16 1/32/16
f 1/32/16 17/31/16 32/26/13 16/25/13
f 10/4/2 26/3/2 25/33/14 9/34/14
f 17/35/17 33/36/17 48/37/18 32/38/18
f 26/39/19 42/40/19 41/41/20 25/42/20
f 19/43/21 35/44/21 34/45/22 18/46/22
f 27/47/23 43/48/23 42/40/19 26/39/19
f 20/49/24 36/50/24 35/44/21 19/43/21
f 28/51/25 44/52/25 43/48/23 27/47/23
f 21/53/26 37/54/26 36/50/24 20/49/24
f 29/55/27 45/56/27 44/52/25 28/51/25
f 22/57/28 38/58/28 37/54/26 21/53/26
f 30/59/29 46/60/29 45/56/27 29/55/27
f 23/61/30 39/62/30 38/58/28 22/57/28
f 31/63/31 47/64/31 46/60/29 30/59/29
f 24/65/32 40/66/32 39/62/30 23/61/30
f 32/38/18 48/37/18 47/64/31 31/63/31
f 25/42/20 41/41/20 40/66/32 24/65/32
f 18/46/22 34/45/22 33/36/17 17/35/17
f 628/67/33 63/68/34 62/69/35 627/70/36
f 630/71/37 56/72/38 55/73/39 629/74/40
f 631/75/41 64/76/42 63/68/34 628/67/33
f 632/77/43 57/78/44 56/72/38 630/71/37
f 634/79/45 50/80/46 49/81/47 633/82/48
f 633/82/48 49/81/47 64/76/42 631/75/41
f 635/83/49 58/84/50 57/85/44 632/86/43
f 636/87/51 51/88/52 50/80/46 634/79/45
f 637/89/53 59/90/54 58/84/50 635/83/49
f 638/91/55 52/92/56 51/88/52 636/87/51
f 639/93/57 60/94/58 59/90/54 637/89/53
f 640/95/59 53/96/60 52/92/56 638/91/55
f 641/97/61 61/98/62 60/94/58 639/93/57
f 642/99/63 54/100/64 53/96/60 640/95/59
f 627/70/36 62/69/35 61/98/62 641/97/61
f 629/74/40 55/73/39 54/100/64 642/99/63
f 53/101/65 69/102/65 68/103/66 52/104/66
f 61/105/67 77/106/67 76/107/68 60/108/68
f 54/109/69 70/110/69 69/102/65 53/101/65
f 62/111/70 78/112/70 77/106/67 61/105/67
f 55/113/71 71/114/71 70/110/69 54/109/69
f 63/115/72 79/116/72 78/112/70 62/111/70
f 56/117/73 72/118/73 71/114/71 55/113/71
f 64/119/74 80/120/74 79/116/72 63/115/72
f 57/121/75 73/122/75 72/118/73 56/117/73
f 50/123/76 66/124/76 65/125/77 49/126/77
f 49/126/77 65/125/77 80/120/74 64/119/74
f 58/127/78 74/128/78 73/122/75 57/121/75
f 51/129/79 67/130/79 66/124/76 50/123/76
f 59/131/80 75/132/80 74/128/78 58/127/78
f 52/104/66 68/103/66 67/130/79 51/129/79
f 60/108/68 76/107/68 75/132/80 59/131/80
f 612/133/81 90/134/82 89/135/83 611/136/84
f 614/137/85 83/138/86 82/139/87 613/140/88
f 615/141/89 91/142/90 90/134/82 612/133/81
f 616/143/91 84/144/92 83/138/86 614/137/85
f 617/145/93 92/146/94 91/142/90 615/141/89
f 618/147/95 85/148/96 84/144/92 616/143/91
f 619/149/97 93/150/98 92/146/94 617/145/93
f 620/151/99 86/152/100 85/148/96 618/147/95
f 621/153/101 94/154/102 93/150/98 619/149/97
f 622/155/103 87/156/104 86/152/100 620/151/99
f 623/157/105 95/158/106 94/154/102 621/153/101
f 624/159/107 88/160/108 87/156/104 622/155/103
f 625/161/109 96/162/110 95/158/106 623/157/105
f 611/163/84 89/164/83 88/160/108 624/159/107
f 613/140/88 82/139/87 81/165/111 626/166/112
f 626/166/112 81/165/111 96/162/110 625/161/109
f 95/167/113 111/168/113 110/169/113 94/170/113
f 88/171/113 104/172/113 103/173/113 87/174/113
f 96/175/113 112/176/113 111/168/113 95/167/113
f 89/177/113 105/178/113 104/172/113 88/171/113
f 82/179/113 98/180/113 97/181/113 81/182/113
f 81/182/113 97/181/113 112/176/113 96/175/113
f 90/183/113 106/184/113 105/178/113 89/177/113
f 83/185/113 99/186/113 98/180/113 82/179/113
f 91/187/113 107/188/113 106/184/113 90/183/113
f 84/189/113 100/190/113 99/186/113 83/185/113
f 92/191/113 108/192/113 107/188/113 91/187/113
f 85/193/113 101/194/113 100/190/113 84/189/113
f 93/195/113 109/196/113 108/192/113 92/191/113
f 86/197/113 102/198/113 101/194/113 85/193/113
f 94/170/113 110/169/113 109/196/113 93/195/113
f 87/174/113 103/173/113 102/198/113 86/197/113
f 596/199/114 117/200/114 116/201/115 595/202/115
f 598/203/116 125/204/116 124/205/117 597/206/117
f 599/207/118 118/208/118 117/200/114 596/199/114
f 600/209/119 126/210/119 125/204/116 598/203/116
f 601/211/120 119/212/120 118/208/118 599/207/118
f 602/213/121 127/214/121 126/210/119 600/209/119
f 603/215/122 120/216/122 119/212/120 601/211/120
f 604/217/123 128/218/123 127/214/121 602/213/121
f 605/219/124 121/220/124 120/216/122 603/215/122
f 607/221/125 114/222/125 113/223/126 606/224/126
f 606/224/126 113/223/126 128/218/123 604/217/123
f 608/225/127 122/226/127 121/227/124 605/228/124
f 609/229/128 115/230/128 114/222/125 607/221/125
f 610/231/129 123/232/129 122/226/127 608/225/127
f 595/202/115 116/201/115 115/230/128 609/229/128
f 597/206/117 124/205/117 123/232/129 610/231/129
f 122/233/130 138/234/130 137/235/130 121/236/130
f 115/237/130 131/238/130 130/239/130 114/240/130
f 123/241/130 139/242/130 138/234/130 122/233/130
f 116/243/130 132/244/130 131/238/130 115/237/130
f 124/245/130 140/246/130 139/242/130 123/241/130
f 117/247/130 133/248/130 132/244/130 116/243/130
f 125/249/130 141/250/130 140/246/130 124/245/130
f 118/251/130 134/252/130 133/248/130 117/247/130
f 126/253/130 142/254/130 141/250/130 125/249/130
f 119/255/130 135/256/130 134/252/130 118/251/130
f 127/257/130 143/258/130 142/254/130 126/253/130
f 120/259/130 136/260/130 135/256/130 119/255/130
f 128/261/130 144/262/130 143/258/130 127/257/130
f 121/236/130 137/235/130 136/260/130 120/259/130
f 114/240/130 130/239/130 129/263/130 113/264/130
f 257/265/113 272/266/113 288/267/113 273/268/113
f 311/269/131 312/270/132 129/271/133 130/272/134
f 336/273/135 338/274/136 281/275/137 280/276/138
f 469/277/43 364/278/49 367/279/49 465/280/43
f 511/281/45 507/282/45 388/283/51 390/284/51
f 333/285/139 444/286/140 360/287/141 332/288/142
f 526/289/55 501/290/59 499/291/59 523/292/55
f 564/293/143 563/294/144 170/295/145 171/296/146
f 566/297/147 565/298/148 163/299/149 164/300/150
f 567/301/151 564/293/143 171/296/146 172/302/152
f 568/303/153 566/297/147 164/300/150 165/304/154
f 569/305/155 567/301/151 172/302/152 173/306/156
f 570/307/157 568/303/153 165/304/154 166/308/158
f 571/309/159 569/305/155 173/306/156 174/310/160
f 572/311/161 570/307/157 166/308/158 167/312/162
f 573/313/163 571/309/159 174/310/160 175/314/164
f 574/315/165 572/311/161 167/312/162 168/316/166
f 575/317/167 573/313/163 175/314/164 176/318/168
f 576/319/169 574/315/165 168/316/166 169/320/170
f 578/321/171 577/322/172 161/323/173 162/324/174
f 577/322/172 575/317/167 176/318/168 161/323/173
f 563/294/144 576/325/169 169/326/170 170/295/145
f 161/327/130 176/328/130 192/329/130 177/330/130
f 170/331/130 169/332/130 185/333/130 186/334/130
f 163/335/130 162/336/130 178/337/130 179/338/130
f 171/339/130 170/331/130 186/334/130 187/340/130
f 164/341/130 163/335/130 179/338/130 180/342/130
f 172/343/130 171/339/130 187/340/130 188/344/130
f 165/345/130 164/341/130 180/342/130 181/346/130
f 173/347/130 172/343/130 188/344/130 189/348/130
f 166/349/130 165/345/130 181/346/130 182/350/130
f 174/351/130 173/347/130 189/348/130 190/352/130
f 167/353/130 166/349/130 182/350/130 183/354/130
f 175/355/130 174/351/130 190/352/130 191/356/130
f 168/357/130 167/353/130 183/354/130 184/358/130
f 176/328/130 175/355/130 191/356/130 192/329/130
f 169/332/130 168/357/130 184/358/130 185/333/130
f 162/336/130 161/327/130 177/330/130 178/337/130
f 548/359/175 547/360/176 206/361/177 207/362/178
f 550/363/179 549/364/180 199/365/181 200/366/182
f 551/367/183 548/359/175 207/362/178 208/368/184
f 552/369/185 550/363/179 200/366/182 201/370/186
f 554/371/187 553/372/188 193/373/189 194/374/190
f 553/372/188 551/367/183 208/368/184 193/373/189
f 555/375/191 552/376/185 201/377/186 202/378/192
f 556/379/193 554/371/187 194/374/190 195/380/194
f 557/381/195 555/375/191 202/378/192 203/382/196
f 558/383/197 556/379/193 195/380/194 196/384/198
f 559/385/199 557/381/195 203/382/196 204/386/200
f 560/387/201 558/383/197 196/384/198 197/388/202
f 561/389/203 559/385/199 204/386/200 205/390/204
f 562/391/205 560/387/201 197/388/202 198/392/206
f 547/360/176 561/389/203 205/390/204 206/361/177
f 549/364/180 562/391/205 198/392/206 199/365/181
f 197/393/113 196/394/113 212/395/113 213/396/113
f 205/397/113 204/398/113 220/399/113 221/400/113
f 198/401/113 197/393/113 213/396/113 214/402/113
f 206/403/113 205/397/113 221/400/113 222/404/113
f 199/405/113 198/401/113 214/402/113 215/406/113
f 207/407/113 206/403/113 222/404/113 223/408/113
f 200/409/113 199/405/113 215/406/113 216/410/113
f 208/411/113 207/407/113 223/408/113 224/412/113
f 201/413/113 200/409/113 216/410/113 217/414/113
f 194/415/113 193/416/113 209/417/113 210/418/113
f 193/416/113 208/411/113 224/412/113 209/417/113
f 202/419/113 201/413/113 217/414/113 218/420/113
f 195/421/113 194/415/113 210/418/113 211/422/113
f 203/423/113 202/419/113 218/420/113 219/424/113
f 196/394/113 195/421/113 211/422/113 212/395/113
f 204/398/113 203/423/113 219/424/113 220/399/113
f 532/425/207 531/426/208 233/427/208 234/428/207
f 534/429/209 533/430/210 226/431/210 227/432/209
f 535/433/211 532/425/207 234/428/207 235/434/211
f 536/435/212 534/429/209 227/432/209 228/436/212
f 537/437/213 535/433/211 235/434/211 236/438/213
f 538/439/214 536/435/212 228/436/212 229/440/214
f 539/441/215 537/437/213 236/438/213 237/442/215
f 540/443/216 538/439/214 229/440/214 230/444/216
f 541/445/217 539/441/215 237/442/215 238/446/217
f 542/447/218 540/443/216 230/444/216 231/448/218
f 543/449/219 541/445/217 238/446/217 239/450/219
f 544/451/220 542/447/218 231/448/218 232/452/220
f 545/453/221 543/449/219 239/450/219 240/454/221
f 531/455/208 544/451/220 232/452/220 233/456/208
f 533/430/210 546/457/222 225/458/222 226/431/210
f 546/457/222 545/453/221 240/454/221 225/458/222
f 239/459/130 238/460/130 254/461/130 255/462/130
f 232/463/130 231/464/130 247/465/130 248/466/130
f 240/467/130 239/459/130 255/462/130 256/468/130
f 233/469/130 232/463/130 248/466/130 249/470/130
f 226/471/130 225/472/130 241/473/130 242/474/130
f 225/472/130 240/467/130 256/468/130 241/473/130
f 234/475/130 233/469/130 249/470/130 250/476/130
f 227/477/130 226/471/130 242/474/130 243/478/130
f 235/479/130 234/475/130 250/476/130 251/480/130
f 228/481/130 227/477/130 243/478/130 244/482/130
f 236/483/130 235/479/130 251/480/130 252/484/130
f 229/485/223 228/481/130 244/482/130 245/486/223
f 237/487/224 236/483/130 252/484/130 253/488/224
f 230/489/130 229/485/223 245/486/223 246/490/130
f 238/460/130 237/487/224 253/488/224 254/461/130
f 231/464/130 230/489/130 246/490/130 247/465/130
f 580/491/225 579/492/226 260/493/226 261/494/225
f 582/495/227 581/496/228 268/497/228 269/498/227
f 583/499/229 580/491/225 261/494/225 262/500/229
f 584/501/230 582/495/227 269/498/227 270/502/230
f 585/503/231 583/499/229 262/500/229 263/504/231
f 586/505/232 584/501/230 270/502/230 271/506/232
f 587/507/233 585/503/231 263/504/231 264/508/233
f 588/509/234 586/505/232 271/506/232 272/510/234
f 589/511/235 587/507/233 264/508/233 265/512/235
f 591/513/236 590/514/237 257/515/237 258/516/236
f 590/514/237 588/509/234 272/510/234 257/515/237
f 592/517/238 589/518/235 265/519/235 266/520/238
f 593/521/239 591/513/236 258/516/236 259/522/239
f 594/523/240 592/517/238 266/520/238 267/524/240
f 579/492/226 593/521/239 259/522/239 260/493/226
f 581/496/228 594/523/240 267/524/240 268/497/228
f 266/525/113 265/526/113 281/527/113 282/528/113
f 259/529/113 258/530/113 274/531/113 275/532/113
f 267/533/113 266/525/113 282/528/113 283/534/113
f 260/535/113 259/529/113 275/532/113 276/536/113
f 268/537/113 267/533/113 283/534/113 284/538/113
f 261/539/113 260/535/113 276/536/113 277/540/113
f 269/541/113 268/537/113 284/538/113 285/542/113
f 262/543/113 261/539/113 277/540/113 278/544/113
f 270/545/113 269/541/113 285/542/113 286/546/113
f 263/547/113 262/543/113 278/544/113 279/548/113
f 271/549/113 270/545/113 286/546/113 287/550/113
f 264/551/113 263/547/113 279/548/113 280/552/113
f 272/266/113 271/549/113 287/550/113 288/267/113
f 265/526/113 264/551/113 280/552/113 281/527/113
f 258/530/113 257/265/113 273/268/113 274/531/113
f 151/553/130 152/554/130 289/555/130 150/556/130
f 152/554/130 153/557/130 292/558/130 289/555/130
f 153/557/130 154/559/130 295/560/130 292/558/130
f 154/559/130 155/561/130 156/562/130 295/560/130
f 150/556/130 289/555/130 290/563/130 149/564/130
f 289/555/130 292/558/130 293/565/130 290/563/130
f 292/558/130 295/560/130 296/566/130 293/565/130
f 295/560/130 156/562/130 157/567/130 296/566/130
f 149/564/130 290/563/130 291/568/130 148/569/130
f 290/563/130 293/565/130 294/570/130 291/568/130
f 293/565/130 296/566/130 297/571/130 294/570/130
f 296/566/130 157/567/130 158/572/130 297/571/130
f 148/569/130 291/568/130 146/573/130 147/574/130
f 291/568/130 294/570/130 145/575/130 146/573/130
f 294/570/130 297/571/130 160/576/130 145/575/130
f 297/571/130 158/572/130 159/577/130 160/576/130
f 3/578/113 2/579/113 298/580/113 4/581/113
f 2/579/113 1/582/113 301/583/113 298/580/113
f 1/582/113 16/584/113 304/585/113 301/583/113
f 16/584/113 15/586/113 14/587/113 304/585/113
f 4/581/113 298/580/113 299/588/113 5/589/113
f 298/580/113 301/583/113 302/590/113 299/588/113
f 301/583/113 304/585/113 305/591/113 302/590/113
f 304/585/113 14/587/113 13/592/113 305/591/113
f 5/589/113 299/588/113 300/593/113 6/594/113
f 299/588/113 302/590/113 303/595/113 300/593/113
f 302/590/113 305/591/113 306/596/113 303/595/113
f 305/591/113 13/592/113 12/597/113 306/596/113
f 6/594/113 300/593/113 8/598/113 7/599/113
f 300/593/113 303/595/113 9/600/113 8/598/113
f 303/595/113 306/596/113 10/601/113 9/600/113
f 306/596/113 12/597/113 11/602/113 10/601/113
f 113/264/130 129/263/130 144/262/130 128/261/130
f 565/298/148 578/321/171 162/324/174 163/299/149
f 3/8/4 19/7/4 18/30/15 2/29/15
f 529/603/55 504/604/59 502/605/59 525/606/55
f 330/607/241 329/608/242 288/609/243 287/610/244
f 335/611/245 336/273/135 280/276/138 279/612/246
f 331/613/247 330/607/241 287/610/244 286/614/248
f 529/603/55 525/606/55 390/284/51 388/283/51
f 378/615/40 475/616/37 472/617/37 375/618/40
f 487/619/63 378/615/40 375/618/40 484/620/63
f 352/621/61 316/622/249 315/623/250 424/624/36
f 323/625/251 335/611/245 279/612/246 278/626/252
f 332/288/142 331/613/247 286/614/248 285/627/253
f 445/628/57 442/629/57 358/630/61 361/631/61
f 346/632/41 406/633/48 402/634/48 342/635/41
f 418/636/33 414/637/33 346/632/41 342/635/41
f 355/638/61 351/639/61 423/640/36 426/641/36
f 324/642/254 323/625/251 278/626/252 277/643/255
f 333/285/139 332/288/142 285/627/253 284/644/256
f 492/645/63 384/646/40 381/647/40 490/648/63
f 481/649/37 469/650/43 465/651/43 478/652/37
f 466/653/43 366/654/49 370/655/49 463/656/43
f 460/657/257 372/658/258 337/659/259 338/660/136
f 325/661/260 324/642/254 277/643/255 276/662/261
f 334/663/262 333/285/139 284/644/256 283/664/263
f 357/665/61 354/666/61 427/667/36 430/668/36
f 507/282/45 511/281/45 405/669/48 409/670/48
f 327/671/264 516/672/265 397/673/266 326/674/267
f 513/675/45 510/676/45 391/677/51 393/678/51
f 326/674/267 325/661/260 276/662/261 275/679/268
f 337/659/259 334/663/262 283/664/263 282/680/269
f 522/681/55 520/682/55 396/683/51 394/684/51
f 382/685/40 477/686/37 474/687/37 379/688/40
f 337/659/259 372/658/258 448/689/270 334/663/262
f 327/671/264 326/674/267 275/679/268 274/690/271
f 338/660/136 337/659/259 282/680/269 281/691/137
f 329/608/242 328/692/272 273/693/273 288/609/243
f 514/694/45 517/695/45 400/696/48 403/697/48
f 516/672/265 327/671/264 328/692/272 399/698/274
f 498/699/59 487/619/63 484/620/63 495/700/59
f 483/701/275 376/702/276 335/611/245 323/625/251
f 475/616/37 462/703/43 459/704/43 472/617/37
f 367/279/49 364/278/49 456/705/53 453/706/53
f 471/707/277 460/708/257 338/274/136 336/273/135
f 438/709/57 436/710/57 351/639/61 355/638/61
f 313/711/278 312/270/132 408/712/48 348/713/41
f 421/714/33 417/715/33 343/716/41 339/717/41
f 435/718/57 317/719/279 316/622/249 352/621/61
f 332/288/142 360/287/141 433/720/280 331/613/247
f 411/721/33 314/722/281 313/711/278 348/713/41
f 343/716/41 403/697/48 400/696/48 339/717/41
f 340/723/282 399/698/274 328/692/272 329/608/242
f 349/724/41 409/670/48 405/669/48 345/725/41
f 415/726/33 412/727/33 349/724/41 345/725/41
f 430/668/36 427/667/36 414/637/33 418/636/33
f 331/613/247 433/720/280 420/728/283 330/607/241
f 318/729/284 317/719/279 435/718/57 457/730/53
f 489/731/63 382/685/40 379/688/40 486/732/63
f 307/733/285 319/734/286 385/735/40 493/736/63
f 477/686/37 466/737/43 463/738/43 474/687/37
f 322/739/287 321/740/288 468/741/43 480/742/37
f 496/743/289 483/701/275 323/625/251 324/642/254
f 373/744/49 369/745/49 451/746/53 447/747/53
f 462/748/43 369/745/49 373/744/49 459/749/43
f 448/689/270 444/286/140 333/285/139 334/663/262
f 454/750/53 439/751/57 441/752/57 450/753/53
f 456/705/53 436/710/57 438/709/57 453/706/53
f 441/752/57 439/751/57 354/666/61 357/665/61
f 361/631/61 358/630/61 429/754/36 432/755/36
f 510/676/45 513/675/45 402/634/48 406/633/48
f 311/269/131 508/756/45 408/712/48 312/270/132
f 424/624/36 315/623/250 314/722/281 411/721/33
f 517/695/45 514/694/45 394/684/51 396/683/51
f 309/757/290 528/758/55 387/759/51 310/760/291
f 501/290/59 489/731/63 486/732/63 499/291/59
f 308/761/292 307/733/285 493/736/63 505/762/59
f 522/681/55 498/699/59 495/700/59 520/682/55
f 309/757/290 308/761/292 505/762/59 528/758/55
f 519/763/293 496/743/289 324/642/254 325/661/260
f 526/289/55 523/292/55 393/678/51 391/677/51
f 508/756/45 311/269/131 310/760/291 387/759/51
f 376/702/276 471/707/277 336/273/135 335/611/245
f 519/763/293 325/661/260 326/674/267 397/673/266
f 319/734/286 322/739/287 480/742/37 385/735/40
f 384/646/40 481/649/37 478/652/37 381/647/40
f 363/764/49 320/765/294 318/729/284 457/730/53
f 370/655/49 366/654/49 454/750/53 450/753/53
f 321/766/288 320/765/294 363/764/49 468/767/43
f 504/604/59 492/645/63 490/648/63 502/605/59
f 451/746/53 442/629/57 445/628/57 447/747/53
f 432/755/36 429/754/36 417/715/33 421/714/33
f 426/641/36 423/640/36 412/727/33 415/726/33
f 274/690/271 273/693/273 328/692/272 327/671/264
f 136/768/295 137/769/296 321/740/288 322/739/287
f 137/770/296 138/771/297 320/765/294 321/766/288
f 130/272/134 131/772/298 310/760/291 311/269/131
f 144/773/299 129/271/133 312/270/132 313/711/278
f 138/771/297 139/774/300 318/729/284 320/765/294
f 143/775/301 144/773/299 313/711/278 314/722/281
f 142/776/302 143/775/301 314/722/281 315/623/250
f 134/777/303 135/778/304 319/734/286 307/733/285
f 141/779/305 142/776/302 315/623/250 316/622/249
f 133/780/306 134/777/303 307/733/285 308/761/292
f 140/781/307 141/779/305 316/622/249 317/719/279
f 132/782/308 133/780/306 308/761/292 309/757/290
f 139/774/300 140/781/307 317/719/279 318/729/284
f 131/772/298 132/782/308 309/757/290 310/760/291
f 135/778/304 136/768/295 322/739/287 319/734/286
f 424/624/309 411/721/310 413/783/310 425/784/309
f 425/784/311 413/783/312 412/727/312 423/640/311
f 496/743/313 519/763/314 521/785/314 497/786/313
f 497/786/315 521/785/316 520/682/316 495/700/315
f 487/619/317 498/699/318 500/787/318 488/788/317
f 488/788/319 500/787/320 499/291/320 486/732/319
f 498/699/318 522/681/321 524/789/321 500/787/318
f 500/787/320 524/789/322 523/292/322 499/291/320
f 481/649/323 384/646/324 386/790/324 482/791/323
f 482/791/325 386/790/326 385/735/326 480/742/325
f 460/708/327 471/707/328 473/792/328 461/793/327
f 461/793/329 473/792/330 472/617/330 459/704/329
f 367/279/331 453/706/332 455/794/332 368/795/331
f 368/795/333 455/794/334 454/750/334 366/654/333
f 466/737/335 477/686/336 479/796/336 467/797/335
f 467/797/337 479/796/338 478/652/338 465/651/337
f 469/650/339 481/649/323 482/791/323 470/798/339
f 470/798/340 482/791/325 480/742/325 468/741/340
f 370/655/341 450/753/342 452/799/342 371/800/341
f 371/800/343 452/799/344 451/746/344 369/745/343
f 373/744/345 447/747/346 449/801/346 374/802/345
f 374/802/347 449/801/348 448/689/348 372/658/347
f 436/710/349 456/705/350 458/803/350 437/804/349
f 437/804/351 458/803/352 457/730/352 435/718/351
f 442/629/353 451/746/344 452/799/344 443/805/353
f 443/805/354 452/799/342 450/753/342 441/752/354
f 439/751/355 454/750/334 455/794/334 440/806/355
f 440/806/356 455/794/332 453/706/332 438/709/356
f 352/621/357 424/624/309 425/784/309 353/807/357
f 353/807/358 425/784/311 423/640/311 351/639/358
f 355/638/359 426/641/360 428/808/360 356/809/359
f 356/809/361 428/808/362 427/667/362 354/666/361
f 415/726/363 345/725/364 347/810/364 416/811/363
f 416/811/365 347/810/366 346/632/366 414/637/365
f 361/631/367 432/755/368 434/812/369 362/813/367
f 362/813/370 434/812/371 433/720/371 360/287/370
f 411/721/310 348/713/372 350/814/372 413/783/310
f 413/783/312 350/814/373 349/724/373 412/727/312
f 418/636/374 342/635/375 344/815/375 419/816/374
f 419/816/376 344/815/377 343/716/377 417/715/376
f 421/714/378 339/717/379 341/817/379 422/818/378
f 422/818/380 341/817/381 340/723/381 420/728/380
f 409/670/382 349/724/373 350/814/373 410/819/382
f 410/819/383 350/814/372 348/713/372 408/712/383
f 403/697/384 343/716/377 344/815/377 404/820/384
f 404/820/385 344/815/375 342/635/375 402/634/385
f 406/633/386 346/632/366 347/810/366 407/821/386
f 407/821/387 347/810/364 345/725/364 405/669/387
f 426/641/360 415/726/363 416/811/363 428/808/360
f 428/808/362 416/811/365 414/637/365 427/667/362
f 430/668/388 418/636/374 419/816/374 431/822/389
f 431/822/390 419/816/376 417/715/376 429/754/390
f 432/755/368 421/714/378 422/818/378 434/812/369
f 434/812/371 422/818/380 420/728/380 433/720/371
f 508/756/391 387/759/392 389/823/392 509/824/391
f 509/824/393 389/823/394 388/283/394 507/282/393
f 511/281/395 390/284/396 392/825/396 512/826/395
f 512/826/397 392/825/398 391/677/398 510/676/397
f 382/685/399 489/731/400 491/827/400 383/828/399
f 383/828/401 491/827/402 490/648/402 381/647/401
f 517/695/403 396/683/404 398/829/404 518/830/403
f 518/830/405 398/829/406 397/673/406 516/672/405
f 376/702/407 483/701/408 485/831/408 377/832/407
f 377/832/409 485/831/410 484/620/410 375/618/409
f 384/646/324 492/645/411 494/833/411 386/790/324
f 386/790/326 494/833/412 493/736/412 385/735/326
f 372/658/347 460/657/327 461/834/327 374/802/347
f 374/802/345 461/834/329 459/749/329 373/744/345
f 435/718/351 352/621/357 353/807/357 437/804/351
f 437/804/349 353/807/358 351/639/358 436/710/349
f 366/654/333 466/653/335 467/835/335 368/795/333
f 368/795/331 467/835/337 465/280/337 367/279/331
f 364/278/413 469/277/339 470/836/339 365/837/413
f 365/837/414 470/836/340 468/767/340 363/764/414
f 438/709/356 355/638/359 356/809/359 440/806/356
f 440/806/355 356/809/361 354/666/361 439/751/355
f 441/752/354 357/665/415 359/838/415 443/805/354
f 443/805/353 359/838/416 358/630/416 442/629/353
f 510/676/397 406/633/386 407/821/386 512/826/397
f 512/826/395 407/821/387 405/669/387 511/281/395
f 516/672/405 399/698/417 401/839/417 518/830/405
f 518/830/403 401/839/418 400/696/418 517/695/403
f 514/694/419 403/697/384 404/820/384 515/840/419
f 515/840/420 404/820/385 402/634/385 513/675/420
f 507/282/393 409/670/382 410/819/382 509/824/393
f 509/824/391 410/819/383 408/712/383 508/756/391
f 519/763/314 397/673/406 398/829/406 521/785/314
f 521/785/316 398/829/404 396/683/404 520/682/316
f 483/701/408 496/743/313 497/786/313 485/831/408
f 485/831/410 497/786/315 495/700/315 484/620/410
f 526/289/421 391/677/398 392/825/398 527/841/421
f 527/841/422 392/825/396 390/284/396 525/606/422
f 529/603/423 388/283/394 389/823/394 530/842/423
f 530/842/424 389/823/392 387/759/392 528/758/424
f 489/731/400 501/290/425 503/843/425 491/827/400
f 491/827/402 503/843/426 502/605/426 490/648/402
f 492/645/411 504/604/427 506/844/427 494/833/411
f 494/833/412 506/844/428 505/762/428 493/736/412
f 477/686/336 382/685/399 383/828/399 479/796/336
f 479/796/338 383/828/401 381/647/401 478/652/338
f 471/707/328 376/702/407 377/832/407 473/792/328
f 473/792/330 377/832/409 375/618/409 472/617/330
f 475/616/429 378/615/430 380/845/430 476/846/429
f 476/846/431 380/845/432 379/688/432 474/687/431
f 501/290/425 526/289/421 527/841/421 503/843/425
f 503/843/426 527/841/422 525/606/422 502/605/426
f 504/604/427 529/603/423 530/842/423 506/844/427
f 506/844/428 530/842/424 528/758/424 505/762/428
f 378/615/430 487/619/317 488/788/317 380/845/430
f 380/845/432 488/788/319 486/732/319 379/688/432
f 513/675/420 393/678/433 395/847/433 515/840/420
f 515/840/419 395/847/434 394/684/434 514/694/419
f 369/745/343 462/748/435 464/848/435 371/800/343
f 371/800/341 464/848/436 463/656/436 370/655/341
f 445/628/437 361/631/367 362/813/367 446/849/437
f 446/849/438 362/813/370 360/287/370 444/286/438
f 522/681/321 394/684/434 395/847/434 524/789/321
f 524/789/322 395/847/433 393/678/433 523/292/322
f 363/764/414 457/730/352 458/803/352 365/837/414
f 365/837/413 458/803/350 456/705/350 364/278/413
f 462/703/435 475/616/429 476/846/429 464/850/435
f 464/850/436 476/846/431 474/687/431 463/738/436
f 444/286/438 448/689/348 449/801/348 446/849/438
f 446/849/437 449/801/346 447/747/346 445/628/437
f 357/665/415 430/668/388 431/822/389 359/838/415
f 359/838/416 431/822/390 429/754/390 358/630/416
f 399/698/417 340/723/381 341/817/381 401/839/417
f 401/839/418 341/817/379 339/717/379 400/696/418
f 330/607/241 420/728/283 340/723/282 329/608/242
f 209/851/439 224/852/440 545/453/440 546/457/439
f 210/853/441 209/851/439 546/457/439 533/430/441
f 217/854/442 216/855/443 544/451/443 531/455/442
f 224/852/440 223/856/444 543/449/444 545/453/440
f 216/855/443 215/857/445 542/447/445 544/451/443
f 223/856/444 222/858/446 541/445/446 543/449/444
f 215/857/445 214/859/447 540/443/447 542/447/445
f 222/858/446 221/860/448 539/441/448 541/445/446
f 214/859/447 213/861/449 538/439/449 540/443/447
f 221/860/448 220/862/450 537/437/450 539/441/448
f 213/861/449 212/863/451 536/435/451 538/439/449
f 220/862/450 219/864/452 535/433/452 537/437/450
f 212/863/451 211/865/453 534/429/453 536/435/451
f 219/864/452 218/866/454 532/425/454 535/433/452
f 211/865/453 210/853/441 533/430/441 534/429/453
f 218/866/454 217/867/442 531/426/442 532/425/454
f 183/868/455 182/869/456 562/391/205 549/364/180
f 190/870/457 189/871/458 561/389/203 547/360/176
f 182/869/456 181/872/459 560/387/201 562/391/205
f 189/871/458 188/873/460 559/385/199 561/389/203
f 181/872/459 180/874/461 558/383/197 560/387/201
f 188/873/460 187/875/462 557/381/195 559/385/199
f 180/874/461 179/876/463 556/379/193 558/383/197
f 187/875/462 186/877/464 555/375/191 557/381/195
f 179/876/463 178/878/465 554/371/187 556/379/193
f 186/877/464 185/879/466 552/376/185 555/375/191
f 177/880/467 192/881/468 551/367/183 553/372/188
f 178/878/465 177/880/467 553/372/188 554/371/187
f 185/882/466 184/883/469 550/363/179 552/369/185
f 192/881/468 191/884/470 548/359/175 551/367/183
f 184/883/469 183/868/455 549/364/180 550/363/179
f 191/884/470 190/870/457 547/360/176 548/359/175
f 147/885/471 146/886/472 578/321/171 565/298/148
f 154/887/473 153/888/474 576/325/169 563/294/144
f 145/889/475 160/890/476 575/317/167 577/322/172
f 146/886/472 145/889/475 577/322/172 578/321/171
f 153/891/474 152/892/477 574/315/165 576/319/169
f 160/890/476 159/893/478 573/313/163 575/317/167
f 152/892/477 151/894/479 572/311/161 574/315/165
f 159/893/478 158/895/480 571/309/159 573/313/163
f 151/894/479 150/896/481 570/307/157 572/311/161
f 158/895/480 157/897/482 569/305/155 571/309/159
f 150/896/481 149/898/483 568/303/153 570/307/157
f 157/897/482 156/899/484 567/301/151 569/305/155
f 149/898/483 148/900/485 566/297/147 568/303/153
f 156/899/484 155/901/486 564/293/143 567/301/151
f 148/900/485 147/885/471 565/298/148 566/297/147
f 155/901/486 154/887/473 563/294/144 564/293/143
f 252/902/487 251/903/488 594/523/488 581/496/487
f 244/904/489 243/905/490 593/521/490 579/492/489
f 251/903/488 250/906/491 592/517/491 594/523/488
f 243/905/490 242/907/492 591/513/492 593/521/490
f 250/906/491 249/908/493 589/518/493 592/517/491
f 241/909/494 256/910/495 588/509/495 590/514/494
f 242/907/492 241/909/494 590/514/494 591/513/492
f 249/911/493 248/912/496 587/507/496 589/511/493
f 256/910/495 255/913/497 586/505/497 588/509/495
f 248/912/496 247/914/498 585/503/498 587/507/496
f 255/913/497 254/915/499 584/501/499 586/505/497
f 247/914/498 246/916/500 583/499/500 585/503/498
f 254/915/499 253/917/501 582/495/501 584/501/499
f 246/916/500 245/918/502 580/491/502 583/499/500
f 253/917/501 252/902/487 581/496/487 582/495/501
f 245/918/502 244/904/489 579/492/489 580/491/502
f 108/919/503 597/206/503 610/231/504 107/920/504
f 100/921/505 595/202/505 609/229/506 99/922/506
f 107/920/504 610/231/504 608/225/507 106/923/507
f 99/922/506 609/229/506 607/221/508 98/924/508
f 106/923/507 608/225/507 605/228/509 105/925/509
f 97/926/510 606/224/510 604/217/511 112/927/511
f 98/924/508 607/221/508 606/224/510 97/926/510
f 105/928/509 605/219/509 603/215/512 104/929/512
f 112/927/511 604/217/511 602/213/513 111/930/513
f 104/929/512 603/215/512 601/211/514 103/931/514
f 111/930/513 602/213/513 600/209/515 110/932/515
f 103/931/514 601/211/514 599/207/516 102/933/516
f 110/932/515 600/209/515 598/203/517 109/934/517
f 102/933/516 599/207/516 596/199/518 101/935/518
f 109/934/517 598/203/517 597/206/503 108/919/503
f 101/935/518 596/199/518 595/202/505 100/921/505
f 65/936/519 626/166/112 625/161/109 80/937/520
f 66/938/521 613/140/88 626/166/112 65/936/519
f 73/939/522 611/163/84 624/159/107 72/940/523
f 80/937/520 625/161/109 623/157/105 79/941/524
f 72/940/523 624/159/107 622/155/103 71/942/525
f 79/941/524 623/157/105 621/153/101 78/943/526
f 71/942/525 622/155/103 620/151/99 70/944/527
f 78/943/526 621/153/101 619/149/97 77/945/528
f 70/944/527 620/151/99 618/147/95 69/946/529
f 77/945/528 619/149/97 617/145/93 76/947/530
f 69/946/529 618/147/95 616/143/91 68/948/531
f 76/947/530 617/145/93 615/141/89 75/949/532
f 68/948/531 616/143/91 614/137/85 67/950/533
f 75/949/532 615/141/89 612/133/81 74/951/534
f 67/950/533 614/137/85 613/140/88 66/938/521
f 74/951/534 612/133/81 611/136/84 73/952/522
f 39/953/535 629/74/40 642/99/63 38/954/536
f 46/955/537 627/70/36 641/97/61 45/956/538
f 38/954/536 642/99/63 640/95/59 37/957/539
f 45/956/538 641/97/61 639/93/57 44/958/540
f 37/957/539 640/95/59 638/91/55 36/959/541
f 44/958/540 639/93/57 637/89/53 43/960/542
f 36/959/541 638/91/55 636/87/51 35/961/543
f 43/960/542 637/89/53 635/83/49 42/962/544
f 35/961/543 636/87/51 634/79/45 34/963/545
f 42/962/544 635/83/49 632/86/43 41/964/546
f 33/965/547 633/82/48 631/75/41 48/966/548
f 34/963/545 634/79/45 633/82/48 33/965/547
f 41/967/546 632/77/43 630/71/37 40/968/549
f 48/966/548 631/75/41 628/67/33 47/969/550
f 40/968/549 630/71/37 629/74/40 39/953/535
f 47/969/550 628/67/33 627/70/36 46/955/537
